<svg width="419" height="305" viewBox="0 0 419 305" fill="none" xmlns="http://www.w3.org/2000/svg">
<rect width="419" height="305" fill="#F5F6FB"/>
<path d="M278.763 223.209C276.719 223.209 274.675 222.993 272.655 222.57L243.032 216.31L243.503 214.066L273.126 220.326C278.157 221.388 283.371 221.013 288.201 219.224L348.989 196.771C349.859 196.452 350.538 195.805 350.905 194.959C351.273 194.112 351.281 193.17 350.921 192.324L350.418 191.126C349.716 189.457 348.095 188.387 346.29 188.387H346.234L320.635 188.707L320.603 186.415L346.202 186.096C346.202 186.096 346.258 186.096 346.29 186.096C349.021 186.096 351.464 187.717 352.534 190.24L353.037 191.437C353.644 192.875 353.636 194.448 353.013 195.877C352.39 197.306 351.249 198.392 349.787 198.927L289 221.38C285.702 222.594 282.245 223.209 278.763 223.209Z" fill="#1E1E1E"/>
<path opacity="0.2" d="M206.214 78.829L193.678 63.4824C191.115 60.3444 187.745 57.957 183.929 56.5756L155.559 46.3312C148.684 43.848 141.003 44.878 135.03 49.0939L110.11 66.6683C107.802 68.2972 105.239 69.439 102.493 70.0698L70.7932 77.3678C63.9264 78.9488 58.1374 83.7396 55.3029 90.1913C53.0512 95.3095 52.7957 101.05 54.5762 106.352L62.2895 129.316C62.5689 130.139 62.8963 130.953 63.2636 131.744L84.9102 177.648C87.106 182.303 90.8748 186.096 95.5219 188.315L109.056 194.783C112.114 196.244 115.42 196.963 118.709 196.963C123.197 196.963 127.66 195.621 131.461 193.003L142.089 185.665C146.265 182.774 149.371 178.51 150.824 173.64L155.487 158.037C157.148 152.488 161.036 147.769 166.163 145.07L187.011 134.115C190.772 132.135 193.878 129.149 196.002 125.468L208.266 104.196C212.889 96.1798 212.059 85.9833 206.206 78.821L206.214 78.829ZM208.977 85.0731C209.592 86.654 210.015 88.2989 210.254 89.9757L107.18 193.05L103.004 191.054L208.977 85.0731ZM102.269 190.703L98.093 188.707L206.422 80.3781C207.316 81.6237 208.059 82.9411 208.657 84.3225L102.277 190.711L102.269 190.703ZM199.443 71.7546L88.8786 182.319C87.9045 181.209 87.0501 179.995 86.3155 178.702L196.664 68.3531L199.443 71.7546ZM192.911 63.7698L83.5927 173.089L81.6125 168.889L189.781 60.7197C190.923 61.622 191.969 62.644 192.911 63.7698ZM81.2692 168.154L79.2889 163.954L185.278 57.965C186.651 58.5878 187.953 59.3623 189.167 60.2566L81.2692 168.154ZM184.52 57.6376L78.9376 163.219L76.9574 159.02L180.008 55.9768L183.665 57.2942C183.953 57.398 184.24 57.5178 184.52 57.6376ZM164.007 50.1958L168.542 51.8327L71.959 148.416L69.9788 144.216L164.007 50.1878V50.1958ZM69.6354 143.489L67.6552 139.289L158.673 48.2715L163.208 49.9084L69.6274 143.489H69.6354ZM169.341 52.1281L173.876 53.765L74.2825 153.358L72.3023 149.158L169.333 52.1281H169.341ZM174.674 54.0524L179.21 55.6893L76.6141 158.285L74.6339 154.085L174.674 54.0445V54.0524ZM157.883 47.992L67.3119 138.563L65.3317 134.363L153.251 46.443C153.938 46.6187 154.617 46.8183 155.295 47.0578L157.883 47.992ZM110.797 67.1234L131.749 52.3437L60.996 123.096L59.4469 118.473L110.805 67.1154L110.797 67.1234ZM102.652 70.8283C104.513 70.3972 106.293 69.7344 107.97 68.8641L59.1675 117.667L57.6184 113.044L98.9872 71.6747L102.652 70.8283ZM57.3469 112.237L55.7979 107.614L89.5653 73.8466L97.5899 72.0021L57.3549 112.237H57.3469ZM55.9975 90.5187C58.4888 84.8575 63.3355 80.5298 69.1723 78.6374L55.207 92.6027C55.4306 91.9 55.6941 91.2053 55.9975 90.5187ZM54.7838 94.1118L70.6894 78.2062C70.7772 78.1823 70.8651 78.1583 70.9609 78.1343L78.73 76.3458L54.2329 100.843C54.0652 98.5832 54.2489 96.3156 54.7838 94.1118ZM54.3287 101.825L80.1353 76.0184L88.16 74.1739L55.5264 106.807L55.2949 106.129C54.8238 104.723 54.5044 103.278 54.3287 101.825ZM61.2674 123.919L135.422 49.7646L135.461 49.7407C138.448 47.6327 141.881 46.3632 145.418 45.948L62.8165 128.55L61.2674 123.927V123.919ZM63.0959 129.348L146.616 45.8282C147.063 45.8042 147.502 45.7803 147.95 45.7803C149.427 45.7803 150.904 45.948 152.365 46.2514L64.9803 133.636L63.9423 131.432C63.6229 130.754 63.3435 130.051 63.0959 129.348ZM83.9361 173.831L193.399 64.3687L196.177 67.7702L85.9402 178.007C85.8284 177.784 85.7007 177.568 85.5889 177.344L83.9361 173.831ZM89.3896 182.894L199.922 72.3614L202.701 75.7629L92.6793 185.784C91.4816 184.938 90.3877 183.964 89.3896 182.894ZM93.3341 186.208L203.188 76.3538L205.615 79.3241C205.735 79.4678 205.839 79.6195 205.951 79.7632L97.3504 188.363L95.8413 187.645C94.9709 187.23 94.1405 186.734 93.3341 186.208ZM107.906 193.41L210.366 90.9498C210.574 93.1217 210.462 95.3254 210.015 97.4733L112.258 195.23C111.284 194.927 110.318 194.552 109.383 194.104L107.914 193.402L107.906 193.41ZM119.644 196.188L153.371 162.461L150.736 171.268L127.788 194.216C125.209 195.406 122.446 196.061 119.644 196.18V196.188ZM141.65 185.05L131.022 192.388C130.727 192.587 130.431 192.779 130.128 192.963L150.281 172.809L150.097 173.432C148.692 178.135 145.69 182.255 141.658 185.042L141.65 185.05ZM195.339 125.108C193.287 128.662 190.285 131.552 186.651 133.46L177.637 138.195L201.623 114.209L195.339 125.108ZM207.603 103.837L203.092 111.654L175.353 139.393L165.803 144.408C160.502 147.194 156.469 152.089 154.753 157.83L153.834 160.912L118.542 196.204C116.713 196.188 114.885 195.949 113.096 195.47L209.655 98.9106C209.176 100.611 208.506 102.264 207.595 103.829L207.603 103.837Z" fill="#1E1E1E"/>
<path opacity="0.2" d="M359.018 212.413L331.335 179.341C328.029 175.388 323.39 172.825 318.288 172.122L273.789 165.998C273.382 165.942 272.982 165.87 272.575 165.791L229.753 157.183C222.359 155.698 214.75 158.349 209.855 164.13C203.691 171.412 203.292 181.896 208.873 189.625C210.47 191.837 212.458 193.681 214.774 195.11L258.546 222.131C262.203 224.39 265.077 227.832 266.635 231.832L274.547 252.073C277.278 259.06 283.594 264.027 291.036 265.041L313.026 268.035C313.944 268.163 314.862 268.219 315.788 268.219C319.366 268.219 322.927 267.292 326.041 265.52L351.153 251.243C355.848 248.576 359.273 244.248 360.79 239.058L363.002 231.497C364.942 224.854 363.457 217.715 359.01 212.405L359.018 212.413ZM360.072 215.184L308.586 266.67L303.149 265.927L357.397 211.679L358.427 212.908C359.034 213.635 359.577 214.394 360.064 215.184H360.072ZM302.198 265.799L296.761 265.057L354.091 207.726L356.902 211.088L302.19 265.799H302.198ZM347.48 199.829L350.29 203.191L289.487 263.995C287.89 263.635 286.365 263.092 284.928 262.382L347.48 199.829ZM284.225 261.998C282.923 261.28 281.71 260.433 280.6 259.451L344.174 195.877L346.985 199.239L284.225 261.998ZM337.068 187.381L274.531 249.918L272.799 245.478L334.257 184.02L337.068 187.381ZM333.762 183.429L272.487 244.704L270.755 240.264L330.951 180.067L333.762 183.429ZM330.44 179.492L270.451 239.482L268.719 235.042L327.223 176.538C328.396 177.392 329.474 178.382 330.448 179.484L330.44 179.492ZM321.721 173.695L266.227 229.189C265.517 227.888 264.67 226.666 263.696 225.548L316.587 172.657L318.184 172.873C319.398 173.041 320.579 173.32 321.721 173.695ZM284.688 168.266L290.118 169.016L245.778 213.356L241.962 211L284.696 168.266H284.688ZM241.291 210.585L237.474 208.229L278.316 167.388L283.746 168.138L241.299 210.585H241.291ZM291.068 169.144L296.497 169.895L250.266 216.126L246.449 213.771L291.076 169.144H291.068ZM297.448 170.023L302.877 170.773L254.753 218.897L250.937 216.541L297.456 170.023H297.448ZM273.685 166.757L277.358 167.26L236.804 207.814L232.987 205.459L271.992 166.453L272.431 166.541C272.847 166.621 273.27 166.693 273.685 166.757ZM259.903 164.026L265.046 165.056L227.829 202.273L224.012 199.917L259.903 164.026ZM223.341 199.502L219.525 197.147L253.859 162.812L259.001 163.842L223.341 199.502ZM265.948 165.24L271.09 166.27L232.316 205.043L228.5 202.688L265.948 165.24ZM229.689 157.958L234.831 158.988L207.691 186.128C206.973 184.643 206.454 183.093 206.134 181.513L229.697 157.95L229.689 157.958ZM225.681 157.55C226.703 157.55 227.741 157.63 228.763 157.79L205.967 180.586C205.647 178.534 205.647 176.45 205.967 174.406L222.575 157.798C223.597 157.638 224.627 157.55 225.665 157.55H225.681ZM210.47 164.601C213.305 161.247 217.113 158.996 221.249 158.053L206.238 173.065C206.933 170.031 208.338 167.116 210.47 164.601ZM208.059 186.838L235.726 159.171L240.868 160.201L210.558 190.511C210.191 190.08 209.831 189.649 209.496 189.186C208.953 188.435 208.482 187.645 208.051 186.838H208.059ZM211.077 191.078L241.77 160.385L246.912 161.415L214.399 193.929C213.185 193.098 212.075 192.148 211.077 191.078ZM215.045 194.368L247.823 161.591L252.965 162.621L218.862 196.723L215.189 194.456C215.141 194.424 215.093 194.392 215.045 194.36V194.368ZM255.424 219.312L303.835 170.901L309.265 171.651L259.233 221.684C259.137 221.62 259.049 221.556 258.953 221.5L255.424 219.32V219.312ZM259.879 222.115L310.215 171.779L315.645 172.53L263.185 224.989C262.187 223.919 261.077 222.961 259.879 222.123V222.115ZM266.611 229.9L322.512 173.999C323.949 174.542 325.322 175.237 326.6 176.091L268.415 234.276L267.353 231.569C267.13 231.002 266.882 230.451 266.611 229.9ZM274.843 250.7L337.571 187.972L340.381 191.334L276.815 254.9C276.216 253.926 275.697 252.888 275.266 251.802L274.835 250.7H274.843ZM277.238 255.563L340.876 191.925L343.687 195.286L280.049 258.924C278.995 257.918 278.045 256.792 277.23 255.563H277.238ZM290.413 264.162L350.801 203.774L353.612 207.135L295.819 264.929L291.148 264.29C290.9 264.258 290.653 264.21 290.405 264.162H290.413ZM309.56 266.789L360.495 215.855C361.277 217.236 361.892 218.697 362.323 220.206L315.094 267.436C314.447 267.412 313.8 267.364 313.153 267.276L309.568 266.789H309.56ZM316.164 267.444L362.547 221.061C362.986 222.905 363.17 224.806 363.066 226.714L324.14 265.64C321.641 266.781 318.91 267.396 316.164 267.444ZM350.801 250.58L343.248 254.868L360.415 237.701L360.08 238.843C358.618 243.841 355.321 248.001 350.801 250.572V250.58ZM360.862 236.176L340.741 256.297L326.432 264.434L362.962 227.904C362.834 229.038 362.611 230.179 362.283 231.297L360.854 236.184L360.862 236.176Z" fill="#1E1E1E"/>
<path d="M217.361 209.35L184.821 195.624L182.372 201.429L214.913 215.154L217.361 209.35Z" fill="#1E1E1E"/>
<path d="M256.625 226.013L224.085 212.287L221.636 218.092L254.176 231.817L256.625 226.013Z" fill="#1E1E1E"/>
<path d="M96.6305 156.915L81.4939 154.64L80.5573 160.87L95.6939 163.145L96.6305 156.915Z" fill="#1E1E1E"/>
<path d="M77.4542 154.032L62.3176 151.757L61.381 157.987L76.5176 160.262L77.4542 154.032Z" fill="#1E1E1E"/>
<path d="M118.053 96.0051L104.797 103.658L107.947 109.114L121.203 101.461L118.053 96.0051Z" fill="#1E1E1E"/>
<path d="M231.702 126.09L224.556 112.553L218.985 115.495L226.131 129.031L231.702 126.09Z" fill="#1E1E1E"/>
<path d="M240.913 143.537L233.767 130L228.196 132.942L235.342 146.478L240.913 143.537Z" fill="#1E1E1E"/>
<path d="M353.3 163.724L338.457 167.46L339.995 173.57L354.838 169.833L353.3 163.724Z" fill="#1E1E1E"/>
<path d="M334.891 226.997L314.008 233.73L315.963 239.795L336.847 233.062L334.891 226.997Z" fill="#1E1E1E"/>
<path d="M337.166 234.035L316.282 240.768L316.569 241.657L337.453 234.924L337.166 234.035Z" fill="#1E1E1E"/>
<path d="M337.71 235.529L316.826 242.262L317.113 243.151L337.997 236.418L337.71 235.529Z" fill="#1E1E1E"/>
<path d="M359.768 219.007L338.885 225.74L340.84 231.805L361.724 225.072L359.768 219.007Z" fill="#1E1E1E"/>
<path d="M362.035 226.045L341.152 232.779L341.438 233.668L362.322 226.935L362.035 226.045Z" fill="#1E1E1E"/>
<path d="M362.579 227.531L341.695 234.264L341.982 235.154L362.865 228.42L362.579 227.531Z" fill="#1E1E1E"/>
<path d="M369.246 182.686L375.498 195.693C376.839 198.52 375.386 201.881 372.4 202.84L295.914 227.273C289.918 229.189 283.418 228.83 277.661 226.275L182.02 183.692C179.625 182.622 178.587 179.78 179.745 177.424L180.887 175.093C182.404 171.987 182.891 168.473 182.268 165.072L179.298 148.791C173.389 116.389 127.461 114.952 119.54 146.923L113.999 169.304C113.36 171.891 110.853 173.56 108.226 173.16L46.4878 163.794C42.6311 163.211 40.1719 159.363 41.2578 155.618L51.1349 121.507C52.133 118.066 54.185 115.016 57.0116 112.804L66.9366 105.019C70.4339 102.28 75.2567 101.977 79.0574 104.26L107.267 119.87C109.351 121.116 111.978 120.964 113.903 119.471L122.758 112.596C124.514 111.231 125.84 109.386 126.574 107.286L143.806 77.24C144.804 74.3894 147.966 72.9362 150.776 74.0461L175.345 83.7635C177.357 84.562 179.218 85.7118 180.831 87.157L198.589 103.087C204.705 108.572 209.743 115.143 213.448 122.473L236.74 168.497C239.598 174.143 244.118 178.774 249.691 181.776L270.97 187.245C272.743 188.204 273.405 190.415 272.447 192.188L269.365 197.889C267.481 201.37 269.11 205.706 272.815 207.095L278.811 209.347C280.919 210.138 283.227 210.217 285.391 209.579L306.566 203.287C308.57 202.688 309.664 200.532 308.953 198.568L306.973 193.074C306.263 191.102 307.309 188.938 309.289 188.267L361.637 176.841C364.032 176.027 366.659 177.137 367.745 179.42L369.246 182.686Z" stroke="#1E1E1E" stroke-width="14.38" stroke-miterlimit="10"/>
<path d="M367.753 179.396L375.498 195.693C376.839 198.52 375.386 201.881 372.4 202.84L295.914 227.273C289.918 229.189 283.418 228.83 277.661 226.275L182.02 183.692C179.625 182.622 178.587 179.78 179.745 177.424L180.887 175.093C182.404 171.987 182.891 168.473 182.268 165.072L179.298 148.791C173.389 116.389 127.461 114.952 119.54 146.923L113.999 169.304C113.36 171.891 110.853 173.56 108.226 173.16L46.4878 163.794C42.6311 163.211 40.1719 159.363 41.2578 155.618L51.1349 121.507C52.133 118.066 54.185 115.016 57.0116 112.804L66.9366 105.019C70.4339 102.28 75.2567 101.977 79.0574 104.26L107.267 119.87C109.351 121.116 111.978 120.964 113.903 119.471L122.758 112.596C124.514 111.231 125.84 109.386 126.574 107.286L143.806 77.24C144.804 74.3894 147.966 72.9362 150.776 74.0461L175.345 83.7635C177.357 84.562 179.218 85.7118 180.831 87.157L198.589 103.087C204.705 108.572 209.743 115.143 213.448 122.473L236.74 168.497C239.598 174.143 244.118 178.774 249.691 181.776L270.97 187.245C272.743 188.204 273.405 190.415 272.447 192.188L269.365 197.889C267.481 201.37 269.11 205.706 272.815 207.095L278.811 209.347C280.919 210.138 283.227 210.217 285.391 209.579L306.566 203.287C308.57 202.688 309.664 200.532 308.953 198.568L306.973 193.074C306.263 191.102 307.309 188.938 309.289 188.267L361.637 176.841C364.032 176.027 366.659 177.137 367.745 179.42L367.753 179.396Z" stroke="#B6FF00" stroke-miterlimit="10" stroke-dasharray="8 8"/>
<path d="M352.973 209.044L345.396 208.373L346.466 209.619L339.351 211.902L340.23 214.649L347.352 212.357L347.2 213.994L352.973 209.044Z" fill="white"/>
<path opacity="0.8" d="M326.352 217.563C325.13 213.755 327.222 209.667 331.039 208.445C334.848 207.223 338.936 209.315 340.158 213.132C341.379 216.941 339.287 221.029 335.471 222.25C331.662 223.472 327.574 221.38 326.352 217.563Z" fill="#1E1E1E"/>
<path d="M333.259 220.981C336.368 220.981 338.888 218.461 338.888 215.352C338.888 212.243 336.368 209.722 333.259 209.722C330.15 209.722 327.63 212.243 327.63 215.352C327.63 218.461 330.15 220.981 333.259 220.981Z" fill="white"/>
<path opacity="0.8" d="M333.259 219.807C335.72 219.807 337.714 217.812 337.714 215.351C337.714 212.891 335.72 210.896 333.259 210.896C330.798 210.896 328.803 212.891 328.803 215.351C328.803 217.812 330.798 219.807 333.259 219.807Z" fill="#1E1E1E"/>
<path d="M330.784 216.142C330.345 214.776 331.095 213.307 332.46 212.868C333.826 212.429 335.295 213.18 335.734 214.545C336.173 215.91 335.423 217.38 334.057 217.819C332.692 218.258 331.223 217.507 330.784 216.142Z" fill="white"/>
</svg>
