<svg width="419" height="305" viewBox="0 0 419 305" fill="none" xmlns="http://www.w3.org/2000/svg">
<rect width="419" height="305" fill="#F5F6FB"/>
<path opacity="0.2" d="M222.541 155.617L221.715 148.838C221.383 146.125 220.322 143.557 218.645 141.403L212.539 133.572C209.664 129.887 205.331 127.765 200.658 127.765C196.738 127.765 192.948 126.129 190.267 123.27L186.25 118.994C184.241 116.856 182.954 114.191 182.533 111.284L181.674 105.404C180.783 99.2894 176.329 94.3896 170.328 92.9318L145.173 86.8172C143.861 86.5013 142.605 85.9992 141.439 85.327L124.926 75.8271C124.083 75.3412 123.298 74.7743 122.569 74.1345L99.6413 53.7983C96.8796 51.3525 93.3323 50 89.6473 50H70.7042C66.8654 50 63.2128 51.4416 60.4106 54.0656L36.7702 76.1835C33.7412 79.018 32 83.0269 32 87.1816V109.753C32 113.77 33.6441 117.69 36.511 120.508L62.2329 145.744C63.8445 147.323 65.8206 148.538 67.9587 149.259L104.816 161.723C106.712 162.363 108.68 162.614 110.672 162.484L146.104 160.063C150 159.796 153.871 161.164 156.738 163.804L159.329 166.194C161.565 168.251 164.335 169.579 167.339 170.024L196.301 174.317C197.038 174.422 197.775 174.479 198.512 174.479C199.572 174.479 200.633 174.365 201.678 174.139L210.765 172.179C218.435 170.526 223.496 163.408 222.541 155.625V155.617ZM219.9 145.145L192.17 172.875L186.477 172.033L217.39 141.12L218.005 141.905C218.783 142.901 219.415 143.995 219.9 145.145ZM185.481 171.887L179.787 171.045L214.029 136.803L216.888 140.472L185.472 171.887H185.481ZM211.899 134.074L213.527 136.163L178.791 170.899L173.097 170.057L210.563 132.592C211.032 133.053 211.486 133.547 211.899 134.074ZM205.055 129.271L165.533 168.793C163.962 168.332 162.48 167.603 161.16 166.639L199.289 128.51C199.743 128.55 200.204 128.583 200.666 128.583C202.188 128.583 203.662 128.826 205.063 129.271H205.055ZM192.697 126.275L156.462 162.509C155.199 161.504 153.782 160.711 152.284 160.16L189.165 123.278L189.684 123.829C190.583 124.784 191.603 125.594 192.697 126.275ZM184.922 118.694L144.241 159.374L137.228 159.852L182.549 114.531C183.108 116.03 183.909 117.431 184.922 118.694ZM181.739 111.405C181.852 112.183 182.022 112.944 182.257 113.689L136.005 159.941L128.991 160.419L181.269 108.141L181.747 111.405H181.739ZM181.115 107.145L127.752 160.508L120.739 160.986L179.844 101.881C180.338 103.023 180.694 104.246 180.88 105.517L181.115 107.137V107.145ZM179.471 101.103L119.508 161.067L112.494 161.545L176.701 97.3375C177.827 98.4228 178.759 99.6943 179.471 101.103ZM171.194 94.0251L104.468 160.751L99.5846 159.099L165.979 92.705L170.149 93.7174C170.506 93.8065 170.862 93.9036 171.202 94.017L171.194 94.0251ZM153.62 89.7085L158.876 90.9881L92.9921 156.872L88.1085 155.22L153.62 89.7085ZM87.2501 154.936L82.3665 153.284L147.44 88.2102L152.697 89.4898L87.2501 154.936ZM159.799 91.2148L165.055 92.4945L98.7342 158.816L93.8506 157.163L159.807 91.2148H159.799ZM146.525 87.9834L81.5161 152.993L76.6325 151.34L141.634 86.3394C142.703 86.8901 143.828 87.3193 144.995 87.6109L146.525 87.9834ZM75.7741 151.057L70.8905 149.405L136.734 83.5615L140.88 85.9506L75.766 151.065L75.7741 151.057ZM126.254 77.536L60.686 143.104L57.3898 139.864L122.294 74.9605C122.99 75.5517 123.727 76.0863 124.521 76.5398L126.254 77.536ZM106.007 60.5285L109.473 63.5979L45.1849 127.886L41.8886 124.647L106.007 60.5285ZM41.3055 124.08L38.0093 120.84L101.933 56.9164L105.4 59.9858L41.3055 124.08ZM110.073 64.1324L113.539 67.2019L49.0561 131.685L45.7599 128.445L110.073 64.1324ZM114.146 67.7445L117.613 70.8139L52.9435 135.483L49.6473 132.243L114.154 67.7364L114.146 67.7445ZM118.22 71.3566L121.686 74.426L56.8228 139.289L53.5266 136.05L118.228 71.3485L118.22 71.3566ZM97.1063 52.9237L34.2029 115.827C33.4335 114.199 32.98 112.434 32.8666 110.628L92.409 51.0852C94.0693 51.4092 95.6647 52.0328 97.1144 52.9156L97.1063 52.9237ZM91.4129 50.9395L32.818 109.534V102.999L84.9986 50.818H89.6554C90.2466 50.818 90.8298 50.8666 91.4129 50.9395ZM32.818 101.857V95.3209L77.3209 50.818H83.8567L32.818 101.857ZM76.1709 50.818L32.818 94.1709V87.6352L69.5866 50.8666C69.9591 50.8342 70.3317 50.8099 70.7123 50.8099H76.179L76.1709 50.818ZM37.329 76.7828L60.9694 54.6649C63.0184 52.7455 65.5534 51.5064 68.2746 51.0366L32.8504 86.4608C33.0447 82.8002 34.6402 79.3096 37.329 76.7909V76.7828ZM34.5754 116.597L97.7947 53.3772C98.2483 53.6931 98.6937 54.0332 99.1148 54.3977L101.334 56.3657L37.4343 120.265L37.0861 119.925C36.0818 118.937 35.2395 117.811 34.5754 116.588V116.597ZM61.2691 143.655L126.983 77.9409L131.129 80.33L64.7354 146.724C64.0551 146.254 63.3991 145.744 62.8079 145.169L61.2691 143.663V143.655ZM65.4238 147.186L131.866 80.7431L136.013 83.1322L70.0401 149.105L68.2341 148.49C67.2541 148.158 66.3147 147.712 65.4319 147.178L65.4238 147.186ZM110.623 161.674C108.825 161.796 107.052 161.577 105.335 161.027L172.037 94.3248C173.543 94.916 174.912 95.7583 176.102 96.7868L111.263 161.626L110.615 161.666L110.623 161.674ZM147.068 159.221C146.728 159.221 146.396 159.229 146.056 159.253L145.464 159.293L185.448 119.31C185.521 119.391 185.586 119.472 185.659 119.553L188.607 122.687L151.417 159.877C150.008 159.455 148.542 159.221 147.06 159.221H147.068ZM157.289 163.213C157.224 163.148 157.151 163.1 157.078 163.035L193.401 126.712C194.916 127.538 196.568 128.097 198.277 128.372L160.512 166.137C160.293 165.959 160.083 165.781 159.88 165.594L157.289 163.205V163.213ZM166.448 169.036L205.906 129.579C207.388 130.162 208.757 130.996 209.971 132.049L172.109 169.911L167.461 169.223C167.121 169.174 166.788 169.109 166.456 169.036H166.448ZM196.414 173.515L193.166 173.037L220.216 145.987C220.548 146.943 220.783 147.939 220.913 148.951L221.229 151.519L199.087 173.661C198.196 173.701 197.305 173.661 196.414 173.523V173.515ZM201.508 173.345C201.119 173.426 200.731 173.491 200.342 173.539L221.358 152.523L221.747 155.714C221.868 156.694 221.877 157.657 221.804 158.605L208.603 171.806L201.508 173.337V173.345ZM210.595 171.385L210.06 171.498L221.642 159.917C220.678 165.513 216.442 170.122 210.603 171.377L210.595 171.385Z" fill="#1E1E1E"/>
<path opacity="0.2" d="M216.11 229.956C215.924 227.348 214.458 225.015 212.191 223.711L181.31 205.967C180.986 205.781 180.678 205.57 180.387 205.335L147.481 178.682C145.246 176.868 142.201 176.431 139.536 177.532L131.713 180.772C129.607 181.646 127.987 183.379 127.266 185.542C126.546 187.704 126.797 190.069 127.963 192.029L133.089 200.687C133.478 201.334 133.948 201.926 134.507 202.444L150.68 217.459C151.344 218.075 152.097 218.569 152.923 218.917L184.808 232.604C185.189 232.766 185.586 232.904 185.991 233.001L206.376 238.135C206.999 238.297 207.639 238.37 208.279 238.37C210.028 238.37 211.761 237.787 213.146 236.694C215.203 235.082 216.313 232.555 216.127 229.948L216.11 229.956ZM215.066 228.692L206.432 237.326L201.217 236.014L212.401 224.829C213.713 225.777 214.644 227.145 215.066 228.7V228.692ZM207.558 221.986L211.705 224.367L200.293 235.771L195.078 234.459L207.558 221.978V221.986ZM194.171 234.232L188.955 232.92L202.691 219.184L206.837 221.565L194.171 234.232ZM188.056 210.778L192.203 213.159L176.993 228.368L172.425 226.408L188.056 210.778ZM171.624 226.068L167.056 224.108L183.181 207.984L187.327 210.365L171.624 226.068ZM192.932 213.58L197.078 215.961L182.363 230.676L177.795 228.717L192.932 213.58ZM180.905 206.672L182.452 207.562L166.254 223.76L161.686 221.8L178.572 204.914L179.876 205.975C180.2 206.234 180.548 206.477 180.905 206.68V206.672ZM160.876 221.452L156.309 219.492L174.329 201.472L177.941 204.396L160.885 221.452H160.876ZM150.64 216.325L147.254 213.183L165.841 194.596L169.453 197.52L150.648 216.325H150.64ZM157.345 187.72L160.957 190.644L142.67 208.931L139.285 205.789L157.345 187.728V187.72ZM138.686 205.23L135.3 202.088L153.102 184.286L156.714 187.21L138.686 205.238V205.23ZM161.589 191.154L165.201 194.078L146.655 212.624L143.27 209.482L161.597 191.154H161.589ZM148.226 180.334L131.729 196.832L129.299 192.725L144.104 177.921C145.132 178.156 146.112 178.617 146.963 179.306L148.226 180.326V180.334ZM131.397 181.808L128.497 184.708C129.153 183.477 130.158 182.464 131.397 181.808ZM127.817 186.53L133.422 180.925L139.836 178.269C140.702 177.913 141.618 177.735 142.533 177.735C142.727 177.735 142.93 177.743 143.124 177.759L128.878 192.005L128.643 191.608C127.736 190.069 127.445 188.255 127.817 186.53ZM132.158 197.552L148.858 180.853L152.47 183.776L134.725 201.521C134.369 201.14 134.037 200.735 133.77 200.282L132.158 197.56V197.552ZM151.231 216.876L170.077 198.03L173.689 200.954L155.499 219.144L153.223 218.164C152.486 217.848 151.822 217.411 151.231 216.868V216.876ZM185.108 231.859L183.164 231.025L197.807 216.382L201.954 218.763L188.032 232.685L186.161 232.215C185.797 232.126 185.44 232.005 185.1 231.859H185.108ZM212.628 236.062C211.146 237.22 209.251 237.739 207.396 237.512L215.252 229.656C215.268 229.777 215.292 229.899 215.3 230.02C215.471 232.361 214.466 234.621 212.628 236.07V236.062Z" fill="#1E1E1E"/>
<path opacity="0.2" d="M388.615 219.824L376.516 198.767C376.321 198.427 376.143 198.07 375.989 197.706L366.611 175.378C365.817 173.482 364.489 171.879 362.772 170.737L339.083 154.985C337.528 153.948 335.714 153.349 333.843 153.252L306.963 151.883C305.926 151.834 304.898 151.932 303.894 152.183L265.457 161.853C263.553 162.33 261.569 162.217 259.731 161.529L246.578 156.588C243.59 155.463 240.302 155.762 237.556 157.398C234.43 159.269 232.486 162.695 232.486 166.347V167.238C232.486 170.826 234.292 174.114 237.329 176.042L262.306 191.891C264.703 193.414 266.291 195.892 266.68 198.702L268.226 210.032C268.413 211.401 268.866 212.697 269.563 213.896L279.67 231.13C280.618 232.741 281.978 234.07 283.614 234.977L300.856 244.517C303.148 245.781 305.805 246.145 308.348 245.529L332.644 239.658C334.847 239.123 337.18 239.391 339.212 240.411L368.708 255.199C370.174 255.936 371.778 256.301 373.381 256.301C374.985 256.301 376.613 255.928 378.087 255.183L384.282 252.057C387.813 250.275 390 246.704 390 242.752V225.031C390 223.209 389.522 221.411 388.615 219.84V219.824ZM389.19 227.906L364.788 252.308L360.439 250.13L388.656 221.913C388.996 222.91 389.19 223.962 389.19 225.023V227.915V227.906ZM388.332 221.087L359.67 249.749L355.321 247.57L385.999 216.892L387.919 220.229C388.081 220.504 388.21 220.796 388.34 221.087H388.332ZM380.387 207.133L382.768 211.28L349.433 244.614L345.084 242.436L380.387 207.133ZM344.323 242.055L339.974 239.877L377.593 202.258L379.974 206.404L344.323 242.055ZM383.189 212.009L385.57 216.155L354.552 247.174L350.202 244.995L383.189 212.009ZM332.061 238.953L323.444 241.035L372.644 191.834L374.58 196.434L332.061 238.953ZM321.938 241.399L313.321 243.48L370.377 186.424L372.312 191.024L321.938 241.399ZM365.444 174.859L298.2 242.112L293.997 239.787L362.359 171.425C363.671 172.3 364.716 173.482 365.453 174.859H365.444ZM357.734 168.356L361.662 170.964L293.252 239.374L289.048 237.05L357.742 168.356H357.734ZM288.303 236.637L284.1 234.313L353.126 165.286L357.054 167.894L288.311 236.637H288.303ZM333.802 154.062C335.511 154.151 337.163 154.693 338.589 155.633L274.13 220.091L271.717 215.969L333.632 154.053H333.794L333.802 154.062ZM339.285 156.086L343.213 158.694L276.981 224.926L274.568 220.804L339.293 156.078L339.285 156.086ZM343.902 159.156L347.83 161.764L279.824 229.769L277.41 225.647L343.91 159.148L343.902 159.156ZM269.02 209.854L268.234 204.104L319.03 153.308L325.25 153.624L269.028 209.846L269.02 209.854ZM283.452 158.168L292.183 155.973L259.196 188.959L255.195 186.424L283.452 158.168ZM254.499 185.979L250.498 183.444L273.191 160.751L281.921 158.556L254.499 185.979ZM265.659 162.646L271.66 161.14L249.802 182.999L245.801 180.464L263.302 162.962C264.088 162.946 264.882 162.841 265.659 162.646ZM262.201 162.914L245.104 180.01L241.103 177.475L257.147 161.431L259.447 162.298C260.338 162.638 261.269 162.841 262.201 162.922V162.914ZM233.296 166.347C233.296 162.986 235.086 159.82 237.977 158.095C240.14 156.799 242.675 156.418 245.088 156.985L233.418 168.656C233.345 168.186 233.304 167.708 233.304 167.23V166.339L233.296 166.347ZM233.596 169.627L245.971 157.252C246.076 157.285 246.19 157.309 246.295 157.35L250.741 159.018L235.92 173.839C234.794 172.656 234.001 171.207 233.596 169.627ZM236.511 174.39L251.567 159.334L256.313 161.116L240.399 177.03L237.759 175.353C237.305 175.07 236.9 174.738 236.511 174.39ZM259.901 189.405L293.713 155.592L302.444 153.397L263.821 192.021C263.472 191.729 263.116 191.462 262.735 191.219L259.893 189.413L259.901 189.405ZM264.436 192.555L303.983 153.009L304.104 152.976C305.027 152.741 305.983 152.652 306.939 152.701L310.64 152.887L266.987 196.54C266.453 195.033 265.586 193.665 264.444 192.547L264.436 192.555ZM267.255 197.423L311.725 152.952L317.945 153.268L268.105 203.108L267.489 198.605C267.433 198.208 267.352 197.811 267.255 197.431V197.423ZM269.206 210.826L326.343 153.689L332.563 154.005L271.312 215.256L270.275 213.483C269.789 212.648 269.433 211.757 269.214 210.826H269.206ZM280.383 230.717L280.253 230.498L348.526 162.225L352.454 164.833L283.42 233.867C282.189 233.057 281.136 231.988 280.391 230.709L280.383 230.717ZM298.945 242.525L365.841 175.629C365.841 175.629 365.866 175.669 365.874 175.693L367.777 180.221L303.351 244.647C302.63 244.444 301.926 244.169 301.261 243.804L298.945 242.525ZM308.178 244.744C306.89 245.06 305.57 245.084 304.29 244.865L368.125 181.031L370.061 185.631L311.83 243.861L308.186 244.744H308.178ZM334.92 238.581C334.45 238.581 333.972 238.621 333.503 238.686L374.936 197.252L375.26 198.022C375.43 198.419 375.617 198.807 375.835 199.172L377.188 201.529L339.204 239.512C337.852 238.905 336.386 238.573 334.92 238.573V238.581ZM365.566 252.705L389.206 229.065V235.6L369.964 254.843C369.672 254.73 369.38 254.616 369.097 254.471L365.574 252.705H365.566ZM370.83 255.127L389.206 236.75V242.752C389.206 242.938 389.198 243.116 389.19 243.302L378.33 254.163L377.747 254.462C375.6 255.548 373.122 255.758 370.838 255.127H370.83ZM383.934 251.328L380.646 252.988L389.028 244.606C388.469 247.481 386.623 249.968 383.934 251.328Z" fill="#1E1E1E"/>
<path d="M309.708 225.914L315.799 228.935C319.071 230.555 322.869 230.709 326.262 229.348L361.257 215.297C363.331 214.463 365.218 213.248 366.837 211.709L370.935 207.805C373.738 205.133 373.956 200.727 371.413 197.803L370.887 197.196C368.7 194.677 365.218 193.713 362.051 194.758L346.032 200.047C343.764 200.792 341.269 200.322 339.431 198.8L323.898 185.882C322.602 184.805 321.152 183.906 319.613 183.226L263.027 158.224C261.691 157.633 260.832 156.313 260.832 154.847V152.92C260.832 151.3 259.868 149.842 258.378 149.202L192.365 121.091C191.563 120.751 190.753 120.435 189.927 120.152L137.722 102.148C136.856 101.849 135.973 101.598 135.082 101.379L87.3799 90.073C87.0721 90.0001 86.7644 89.911 86.4566 89.8057L64.031 81.9499C61.3665 81.0185 58.4914 80.8971 55.754 81.6017L55.6163 81.634C53.2191 82.2577 51.0486 85.2542 51.0081 87.7325C50.9514 91.134 52.4983 92.9967 52.4983 92.9967C53.5268 94.2925 55.0737 94.7379 56.9607 95.483L86.9344 107.226C89.8338 108.36 92.4902 110.045 94.7579 112.191L139.488 150.417C140.654 151.519 141.367 153.009 141.496 154.604L142.185 162.946C142.492 166.655 144.242 170.097 147.068 172.519L173.049 194.855C175.236 196.734 177.593 198.403 180.087 199.836L221.099 223.339C225.521 225.874 231.158 223.882 233.005 219.128L235.791 211.968C236.908 209.101 240.472 208.129 242.893 210.024L261.107 224.319C264.072 226.643 267.489 228.344 271.134 229.316L276.803 230.822C278.447 231.26 280.18 231.26 281.832 230.822L302.8 225.226C305.108 224.61 307.562 224.845 309.708 225.914Z" stroke="#1E1E1E" stroke-width="15" stroke-miterlimit="10"/>
<path d="M309.708 225.914L315.799 228.935C319.071 230.555 322.869 230.709 326.262 229.348L361.257 215.297C363.331 214.463 365.218 213.248 366.837 211.709L370.935 207.805C373.738 205.133 373.956 200.727 371.413 197.803L370.887 197.196C368.7 194.677 365.218 193.713 362.051 194.758L346.032 200.047C343.764 200.792 341.269 200.322 339.431 198.8L323.898 185.882C322.602 184.805 321.152 183.906 319.613 183.226L263.027 158.224C261.691 157.633 260.832 156.313 260.832 154.847V152.92C260.832 151.3 259.868 149.842 258.378 149.202L192.365 121.091C191.563 120.751 190.753 120.435 189.927 120.152L137.722 102.148C136.856 101.849 135.973 101.598 135.082 101.379L87.3799 90.073C87.0721 90.0001 86.7644 89.911 86.4566 89.8057L64.031 81.9499C61.3665 81.0185 58.4914 80.8971 55.754 81.6017L55.6163 81.634C53.2191 82.2577 51.0486 85.2542 51.0081 87.7325C50.9514 91.134 52.4983 92.9967 52.4983 92.9967C53.5268 94.2925 55.0737 94.7379 56.9607 95.483L86.9344 107.226C89.8338 108.36 92.4902 110.045 94.7579 112.191L139.488 150.417C140.654 151.519 141.367 153.009 141.496 154.604L142.185 162.946C142.492 166.655 144.242 170.097 147.068 172.519L173.049 194.855C175.236 196.734 177.593 198.403 180.087 199.836L221.099 223.339C225.521 225.874 231.158 223.882 233.005 219.128L235.791 211.968C236.908 209.101 240.472 208.129 242.893 210.024L261.107 224.319C264.072 226.643 267.489 228.344 271.134 229.316L276.803 230.822C278.447 231.26 280.18 231.26 281.832 230.822L302.8 225.226C305.108 224.61 307.57 224.853 309.716 225.922L309.708 225.914Z" stroke="#B6FF00" stroke-miterlimit="10" stroke-dasharray="8 8"/>
<path d="M364.067 192.118L279.192 155.795C277.572 155.106 276.39 153.73 275.936 152.029L275.831 151.616C275.596 150.733 274.924 150.036 274.049 149.769L257.722 145.266L258.289 143.217L274.648 147.736C276.26 148.23 277.459 149.478 277.888 151.073L277.993 151.486C278.277 152.547 279.022 153.414 280.034 153.843L364.91 190.166L364.076 192.118H364.067Z" fill="#1E1E1E"/>
<path d="M73.6043 110.947L60.395 105.9L58.3168 111.34L71.526 116.386L73.6043 110.947Z" fill="#1E1E1E"/>
<path d="M80.5802 72.4468L67.0447 68.355L65.3597 73.9289L78.8953 78.0207L80.5802 72.4468Z" fill="#1E1E1E"/>
<path d="M141.306 89.5L127.771 85.4082L126.086 90.9821L139.621 95.0739L141.306 89.5Z" fill="#1E1E1E"/>
<path d="M157.787 94.477L144.251 90.3853L142.566 95.9592L156.102 100.051L157.787 94.477Z" fill="#1E1E1E"/>
<path d="M138.771 130.68L127.887 121.654L124.17 126.136L135.054 135.163L138.771 130.68Z" fill="#1E1E1E"/>
<path d="M136.739 175.473L133.347 161.745L127.694 163.142L131.086 176.87L136.739 175.473Z" fill="#1E1E1E"/>
<path d="M225.031 215.537L232.101 203.291L227.058 200.38L219.988 212.626L225.031 215.537Z" fill="#1E1E1E"/>
<path d="M360.927 231.152L383.96 217.854L381.049 212.811L358.015 226.109L360.927 231.152Z" fill="#1E1E1E"/>
<path d="M294.046 182.944L275.363 175.079L273.081 180.498L291.765 188.363L294.046 182.944Z" fill="#1E1E1E"/>
<path d="M291.395 189.251L272.712 181.386L272.376 182.184L291.059 190.05L291.395 189.251Z" fill="#1E1E1E"/>
<path d="M290.872 190.619L272.189 182.754L271.856 183.545L290.539 191.411L290.872 190.619Z" fill="#1E1E1E"/>
<path d="M315.921 192.091L297.238 184.226L294.956 189.645L313.639 197.51L315.921 192.091Z" fill="#1E1E1E"/>
<path d="M313.273 198.391L294.59 190.525L294.257 191.317L312.94 199.182L313.273 198.391Z" fill="#1E1E1E"/>
<path d="M312.742 199.756L294.059 191.891L293.723 192.689L312.406 200.555L312.742 199.756Z" fill="#1E1E1E"/>
<path d="M319.144 183.015L314.341 177.881L314.309 179.403L308.008 176.585L306.923 179.014L313.232 181.833L312.114 182.869L319.144 183.015Z" fill="white"/>
<path opacity="0.8" d="M295.6 172.527C297.107 169.15 301.067 167.635 304.444 169.142C307.821 170.648 309.336 174.608 307.83 177.985C306.323 181.363 302.363 182.877 298.986 181.371C295.608 179.864 294.094 175.904 295.6 172.527Z" fill="#1E1E1E"/>
<path d="M296.961 173.135C298.136 170.511 301.205 169.328 303.829 170.502C306.453 171.677 307.635 174.746 306.461 177.37C305.287 179.994 302.217 181.177 299.593 180.002C296.969 178.828 295.787 175.759 296.961 173.135Z" fill="white"/>
<path opacity="0.8" d="M297.957 173.58C298.881 171.507 301.318 170.576 303.392 171.499C305.465 172.422 306.396 174.86 305.473 176.933C304.55 179.006 302.112 179.938 300.039 179.015C297.965 178.091 297.034 175.654 297.957 173.58Z" fill="#1E1E1E"/>
<path d="M299.52 174.277C300.063 173.062 301.48 172.519 302.695 173.062C303.91 173.605 304.452 175.022 303.91 176.237C303.367 177.452 301.95 177.994 300.735 177.452C299.52 176.909 298.978 175.492 299.52 174.277Z" fill="white"/>
</svg>
