<svg width="419" height="305" viewBox="0 0 419 305" fill="none" xmlns="http://www.w3.org/2000/svg">
<rect width="419" height="305" fill="#F5F6FB"/>
<path opacity="0.2" d="M222.914 110.074C222.448 107.117 221.283 104.314 219.516 101.898C217.749 99.4815 215.431 97.5219 212.755 96.1817L163.982 71.8191C162.395 71.0265 160.704 70.4628 158.959 70.1449L110.469 61.3046C107.452 60.7542 104.345 60.9518 101.421 61.88C98.4969 62.8082 95.8449 64.4387 93.6969 66.6289C87.6256 72.8071 78.5072 81.4229 73.6121 86.0089C71.2188 88.2535 69.4549 91.0856 68.496 94.2235L64.9018 105.995C63.8029 109.562 63.796 113.376 64.882 116.946C65.9679 120.517 68.0972 123.681 70.9959 126.032L87.5593 139.533C88.5424 140.335 89.4381 141.239 90.2316 142.228L106.396 162.403C108.631 165.196 111.618 167.29 115.005 168.44L138.664 176.484C142.047 177.627 145.685 177.785 149.155 176.938C152.624 176.092 155.781 174.276 158.258 171.704L168.717 160.799C170.353 159.089 172.312 157.721 174.481 156.774L200.088 145.556C202.986 144.285 205.516 142.303 207.445 139.794L219.256 124.415C220.801 122.395 221.922 120.083 222.55 117.618C223.179 115.154 223.303 112.587 222.914 110.074ZM213.843 97.7031L136.599 174.947L131.842 173.33L209.655 95.5166L212.401 96.8884C212.898 97.1366 213.376 97.4129 213.843 97.7031ZM204.659 93.0208L208.91 95.1444L131.008 173.046L126.251 171.429L204.659 93.0208ZM125.417 171.145L120.66 169.528L199.662 90.5253L203.914 92.6486L125.417 171.145ZM193.921 87.6575L114.265 167.314C112.816 166.723 111.451 165.945 110.204 165L189.67 85.5341L193.921 87.6575ZM169.686 75.5516L173.937 77.6751L99.3126 152.299L96.4771 148.76L169.686 75.5516ZM95.9801 148.14L93.1446 144.601L164.69 73.0559L168.941 75.1794L95.9801 148.14ZM174.682 78.0472L178.933 80.1706L102.645 156.459L99.8095 152.92L174.682 78.0472ZM179.678 80.5428L183.929 82.6663L105.977 160.618L103.142 157.079L179.678 80.5428ZM140.243 67.5354L145.634 68.5183L80.9921 133.161L77.4803 130.298L140.243 67.5354ZM76.8648 129.796L73.3531 126.934L133.907 66.3803L139.298 67.3632L76.8648 129.796ZM146.579 68.6907L151.971 69.6737L85.1197 136.525L81.6076 133.662L146.579 68.6907ZM121.233 64.0698L126.625 65.0528L68.8843 122.794C67.9057 121.591 67.0876 120.266 66.4505 118.853L121.233 64.0698ZM66.1151 118.071C65.4606 116.414 65.0576 114.668 64.9194 112.892L114.897 62.9145L120.288 63.8975L66.1151 118.071ZM74.1522 86.5853C79.0519 81.9953 88.1792 73.3711 94.2602 67.1829C94.8989 66.5367 95.5854 65.9396 96.3139 65.3966L70.741 90.9695C71.6439 89.3401 72.7947 87.861 74.1522 86.5853ZM69.2514 94.4542C69.3925 93.9922 69.5583 93.5397 69.7356 93.0921L99.1981 63.6296C101.75 62.3788 104.562 61.7515 107.403 61.7994L66.8354 102.367L69.2514 94.4542ZM65.6572 106.226L66.3444 103.975L108.471 61.849C109.093 61.8942 109.713 61.9718 110.328 62.0815L113.952 62.7422L64.8757 111.818C64.8413 109.925 65.1051 108.038 65.6572 106.226ZM69.3954 123.4L127.57 65.2251L132.962 66.208L72.7376 126.432L71.495 125.419C70.7422 124.803 70.0401 124.128 69.3954 123.4ZM85.7351 137.027L152.916 69.846L158.308 70.829L89.1893 139.947C88.8219 139.594 88.4529 139.243 88.0585 138.921L85.7351 137.027ZM89.7501 140.504L159.24 71.0144C160.762 71.3264 162.237 71.8344 163.629 72.5258L163.945 72.6837L92.6477 143.981L90.848 141.735C90.5045 141.306 90.1306 140.901 89.7501 140.504ZM107.012 161.909L106.474 161.238L184.674 83.0384L188.925 85.1619L109.577 164.51C108.636 163.732 107.777 162.861 107.012 161.909ZM115.074 167.621L194.666 88.0296L198.917 90.1531L119.826 169.244L115.26 167.692C115.197 167.67 115.137 167.643 115.074 167.621ZM137.433 175.23L214.52 98.1432C215.766 98.998 216.899 100.006 217.893 101.145L142.492 176.546C141.276 176.4 140.078 176.128 138.918 175.735L137.433 175.23ZM143.517 176.638L218.403 101.752C219.373 102.965 220.182 104.299 220.81 105.72L150.993 175.537C148.606 176.425 146.059 176.801 143.517 176.638ZM174.164 156.05C171.9 157.039 169.855 158.467 168.147 160.252L157.688 171.157C156.328 172.569 154.744 173.748 153.001 174.645L221.136 106.51C221.599 107.7 221.933 108.935 222.134 110.196C222.213 110.703 222.265 111.212 222.3 111.722L180.94 153.082L174.164 156.05ZM206.818 139.312C204.971 141.716 202.547 143.614 199.771 144.832L196.26 146.37L218.405 124.225L206.818 139.312ZM220.391 121.122L194.272 147.241L182.928 152.211L222.344 112.795C222.367 115.687 221.697 118.542 220.391 121.122Z" fill="#1E1E1E"/>
<path opacity="0.2" d="M389.706 191.009L385.963 170.004C385.441 167.104 384.245 164.366 382.473 162.011C380.7 159.656 378.4 157.75 375.757 156.446L331.027 134.474C328.871 133.413 326.53 132.777 324.133 132.602L288.929 130.001C284.345 129.663 279.797 131.017 276.145 133.808C272.493 136.598 269.991 140.631 269.113 145.143L265.851 161.926C265.362 164.461 265.4 167.071 265.962 169.591C266.523 172.112 267.597 174.49 269.117 176.578L293.833 210.443C295.244 212.38 297.014 214.027 299.048 215.295L315.457 225.552C319.177 227.876 323.593 228.825 327.94 228.236L371.511 222.31C375.259 221.784 378.763 220.144 381.569 217.603C384.374 215.062 386.352 211.737 387.245 208.058L389.486 198.657C390.087 196.15 390.162 193.546 389.706 191.009ZM389.162 193.02L358.963 223.22L351.584 224.223L388.283 187.525L388.928 191.148C389.039 191.768 389.117 192.393 389.162 193.02ZM387.149 181.166L388.114 186.577L350.291 224.399L342.914 225.402L387.149 181.166ZM341.621 225.578L334.243 226.582L386.016 174.808L386.981 180.218L341.621 225.578ZM324.621 227.595C322.807 227.51 321.016 227.151 319.309 226.532L382.468 163.373C383.349 164.705 384.049 166.149 384.55 167.666L324.621 227.595ZM378.294 158.938L313.705 223.526L309.783 221.074L374.264 156.593L375.408 157.155C376.424 157.656 377.391 158.253 378.294 158.938ZM369.24 154.125L373.515 156.225L309.095 220.645L305.173 218.193L369.24 154.125ZM304.485 217.763L300.562 215.311L364.216 151.657L368.491 153.757L304.485 217.763ZM339.096 139.318L343.371 141.418L286.177 198.612L283.488 194.927L339.096 139.318ZM283.016 194.281L280.327 190.596L334.072 136.85L338.347 138.95L283.016 194.281ZM344.12 141.786L348.395 143.886L289.338 202.943L286.649 199.258L344.12 141.786ZM349.145 144.254L353.419 146.354L292.499 207.274L289.809 203.589L349.145 144.254ZM333.323 136.482L279.855 189.95L277.166 186.265L328.974 134.458C329.554 134.67 330.123 134.912 330.679 135.183L333.323 136.482ZM328.13 134.184L276.695 185.62L274.005 181.935L322.655 133.285L324.074 133.39C325.452 133.497 326.813 133.764 328.13 134.184ZM273.534 181.289L270.844 177.604L315.678 132.77L321.614 133.208L273.534 181.289ZM307.662 132.177L267.608 172.231C266.948 170.586 266.533 168.853 266.376 167.088L301.726 131.738L307.662 132.177ZM293.709 131.146L267.556 157.299L269.094 149.387L287.734 130.746C288.112 130.75 288.49 130.76 288.87 130.788L293.709 131.146ZM273.607 137.382L276.25 134.739C279.191 132.365 282.807 130.979 286.583 130.781L269.364 148L269.89 145.293C270.456 142.389 271.733 139.671 273.607 137.382ZM266.628 162.076L267.286 158.686L294.75 131.223L300.686 131.662L266.313 166.035C266.27 164.708 266.376 163.38 266.628 162.076ZM267.943 173.013L308.702 132.254L314.638 132.693L270.373 176.958L269.755 176.112C269.049 175.142 268.442 174.104 267.943 173.013ZM292.97 207.92L354.168 146.722L358.443 148.822L295.747 211.518C295.294 211.028 294.868 210.514 294.472 209.977L292.97 207.92ZM296.299 212.083L359.192 149.19L363.467 151.289L299.875 214.881L299.466 214.626C298.317 213.901 297.255 213.048 296.299 212.083ZM314.393 223.956L378.921 159.428C380.082 160.392 381.119 161.497 382.006 162.717L318.497 226.227C317.587 225.851 316.711 225.402 315.875 224.882L314.393 223.956ZM327.833 227.453C327.137 227.543 326.437 227.591 325.735 227.598L384.81 168.523C384.957 169.056 385.087 169.595 385.185 170.143L385.847 173.86L332.95 226.757L327.833 227.453ZM386.477 207.875C386.082 209.513 385.456 211.086 384.618 212.548L377.813 219.353C375.835 220.481 373.66 221.219 371.404 221.528L368.927 221.865L387.59 203.201L386.477 207.875ZM387.94 201.734L367.634 222.041L360.256 223.044L389.205 194.095C389.223 195.569 389.059 197.04 388.717 198.473L387.94 201.734Z" fill="#1E1E1E"/>
<path d="M147.353 130.83L139.452 136.923C138.476 137.675 137.313 138.147 136.089 138.288C134.865 138.429 133.626 138.234 132.504 137.723L120.355 132.19C119.491 131.797 118.676 131.304 117.926 130.723L98.3703 115.56C96.5346 114.136 94.507 112.98 92.3477 112.124L63.2259 100.583C61.9204 100.065 60.8137 99.1452 60.0665 97.9563C59.3193 96.7673 58.9704 95.3711 59.0705 93.9704L59.3642 89.8577C59.4307 88.9269 59.2885 87.993 58.9479 87.1243C58.6074 86.2555 58.0771 85.4737 57.3959 84.836C56.7146 84.1983 55.8996 83.7208 55.0102 83.4383C54.1208 83.1559 53.1796 83.0756 52.2553 83.2033L42.7458 84.5177C42.3446 84.5731 41.9359 84.5268 41.5573 84.3829C41.1787 84.2391 40.8423 84.0023 40.5792 83.6944C40.316 83.3865 40.1346 83.0174 40.0514 82.621C39.9683 82.2246 39.9862 81.8137 40.1034 81.426L42.8251 72.4278C44.8503 65.7323 62.0141 61.3059 66.883 66.3285L71.2303 70.8131C71.8566 71.4592 72.3875 72.1914 72.807 72.9875L78.7839 84.3315C79.3281 85.3644 80.0719 86.2789 80.9721 87.0221C81.8724 87.7653 82.9112 88.3225 84.0283 88.6612L227.04 137.031C227.89 137.289 228.794 137.31 229.656 137.091C230.517 136.872 231.302 136.422 231.926 135.79L235.679 131.987C236.432 131.223 237.364 130.659 238.39 130.345C239.416 130.031 240.504 129.977 241.556 130.188C242.608 130.399 243.591 130.868 244.417 131.554C245.242 132.239 245.884 133.119 246.285 134.115L246.542 134.754C247.402 136.891 248.965 138.672 250.973 139.802L269.781 150.39C270.467 150.776 271.195 151.082 271.951 151.302L348.96 173.705C353.467 175.016 357.47 177.665 360.44 181.3C363.41 184.936 365.206 189.387 365.591 194.065L368.472 229.064C368.728 232.172 367.785 235.26 365.837 237.694L362.963 241.287C361.869 242.655 360.429 243.704 358.793 244.327C357.157 244.95 355.384 245.124 353.657 244.831L347.934 243.858C346.216 243.566 344.596 242.858 343.214 241.797C341.832 240.736 340.731 239.352 340.006 237.768C339.321 236.27 339.023 234.624 339.14 232.981C339.257 231.338 339.786 229.751 340.677 228.365L348.511 212.329C350.954 208.531 348.797 198.973 346.7 194.973C346.213 194.045 345.533 193.233 344.705 192.59C343.877 191.948 342.921 191.49 341.901 191.249C340.882 191.008 339.822 190.989 338.794 191.193C337.766 191.396 336.794 191.819 335.943 192.43L330.55 196.31C327.984 198.156 325.002 199.341 321.869 199.76L317.073 200.402C310.325 201.306 311.359 200.348 305.116 197.63C301.875 196.22 298.922 194.225 296.403 191.745L292.85 188.248C291.767 187.182 290.441 186.396 288.986 185.958C287.531 185.52 285.991 185.444 284.5 185.735L281.656 186.291C279.692 186.674 277.935 187.76 276.713 189.345C275.491 190.93 274.888 192.905 275.017 194.902L275.653 204.807C275.693 205.424 275.56 206.04 275.269 206.585C274.977 207.131 274.54 207.584 274.005 207.894C273.471 208.205 272.86 208.36 272.242 208.342C271.624 208.325 271.023 208.135 270.507 207.795L153.457 130.605C152.543 130.002 151.463 129.7 150.369 129.74C149.274 129.78 148.22 130.162 147.353 130.83Z" stroke="#1E1E1E" stroke-width="15" stroke-miterlimit="10"/>
<path d="M147.353 130.83L139.452 136.923C138.476 137.675 137.313 138.147 136.089 138.288C134.865 138.429 133.626 138.234 132.504 137.723L120.355 132.19C119.491 131.797 118.676 131.304 117.926 130.723L98.3703 115.56C96.5346 114.136 94.507 112.98 92.3477 112.124L63.2259 100.583C61.9204 100.065 60.8137 99.1452 60.0665 97.9563C59.3193 96.7673 58.9704 95.3711 59.0705 93.9704L59.3642 89.8577C59.4307 88.9269 59.2885 87.993 58.9479 87.1243C58.6074 86.2555 58.0771 85.4737 57.3959 84.836C56.7146 84.1983 55.8996 83.7208 55.0102 83.4383C54.1208 83.1559 53.1796 83.0756 52.2553 83.2033L42.7458 84.5177C42.3446 84.5731 41.9359 84.5268 41.5573 84.3829C41.1787 84.2391 40.8423 84.0023 40.5792 83.6944C40.316 83.3865 40.1346 83.0174 40.0514 82.621C39.9683 82.2246 39.9862 81.8137 40.1034 81.426L42.8251 72.4278C44.8503 65.7323 62.0141 61.3059 66.883 66.3285L71.2303 70.8131C71.8566 71.4592 72.3875 72.1914 72.807 72.9875L78.7839 84.3315C79.3281 85.3644 80.0719 86.2789 80.9721 87.0221C81.8724 87.7653 82.9112 88.3225 84.0283 88.6612L227.04 137.031C227.89 137.289 228.794 137.31 229.656 137.091C230.517 136.872 231.302 136.422 231.926 135.79L235.679 131.987C236.432 131.223 237.364 130.659 238.39 130.345C239.416 130.031 240.504 129.977 241.556 130.188C242.608 130.399 243.591 130.868 244.417 131.554C245.242 132.239 245.884 133.119 246.285 134.115L246.542 134.754C247.402 136.891 248.965 138.672 250.973 139.802L269.781 150.39C270.467 150.776 271.195 151.082 271.951 151.302L348.96 173.705C353.467 175.016 357.47 177.665 360.44 181.3C363.41 184.936 365.206 189.387 365.591 194.065L368.472 229.064C368.728 232.172 367.785 235.26 365.837 237.694L362.963 241.287C361.869 242.655 360.429 243.704 358.793 244.327C357.157 244.95 355.384 245.124 353.657 244.831L347.934 243.858C346.216 243.566 344.596 242.858 343.214 241.797C341.832 240.736 340.731 239.352 340.006 237.768C339.321 236.27 339.023 234.624 339.14 232.981C339.257 231.338 339.786 229.751 340.677 228.365L348.511 212.329C350.954 208.531 348.797 198.973 346.7 194.973C346.213 194.045 345.533 193.233 344.705 192.59C343.877 191.948 342.921 191.49 341.901 191.249C340.882 191.008 339.822 190.989 338.794 191.193C337.766 191.396 336.794 191.819 335.943 192.43L330.55 196.31C327.984 198.156 325.002 199.341 321.869 199.76L317.073 200.402C310.325 201.306 311.359 200.348 305.116 197.63C301.875 196.22 298.922 194.225 296.403 191.745L292.85 188.248C291.767 187.182 290.441 186.396 288.986 185.958C287.531 185.52 285.991 185.444 284.5 185.735L281.656 186.291C279.692 186.674 277.935 187.76 276.713 189.345C275.491 190.93 274.888 192.905 275.017 194.902L275.653 204.807C275.693 205.424 275.56 206.04 275.269 206.585C274.977 207.131 274.54 207.584 274.005 207.894C273.471 208.205 272.86 208.36 272.242 208.342C271.624 208.325 271.023 208.135 270.507 207.795L153.457 130.605C152.543 130.002 151.463 129.7 150.369 129.74C149.274 129.78 148.22 130.162 147.353 130.83Z" stroke="#B6FF00" stroke-miterlimit="10" stroke-dasharray="8 4"/>
<path d="M257.346 195.072L255.607 186.182C255.423 185.242 255.039 184.352 254.48 183.573C253.922 182.795 253.202 182.145 252.371 181.67L224.05 165.443L206.551 154.392C205.408 153.668 204.14 153.164 202.812 152.905L188.751 150.154L189.206 147.829L203.268 150.58C204.883 150.894 206.426 151.507 207.817 152.387L225.272 163.412L253.55 179.613C254.676 180.258 255.65 181.138 256.407 182.193C257.163 183.248 257.683 184.453 257.932 185.727L259.672 194.617L257.346 195.072Z" fill="#1E1E1E"/>
<path d="M131.423 145.59L116.747 139.733L114.335 145.775L129.011 151.633L131.423 145.59Z" fill="#1E1E1E"/>
<path d="M53.368 107.473L49.0258 92.2805L42.7699 94.0685L47.1122 109.261L53.368 107.473Z" fill="#1E1E1E"/>
<path d="M93.0653 76.2181L85.1647 62.5339L79.5301 65.7871L87.4306 79.4713L93.0653 76.2181Z" fill="#1E1E1E"/>
<path d="M248.195 116.1H232.394V122.607H248.195V116.1Z" fill="#1E1E1E"/>
<path d="M367.849 166.749L353.543 160.041L350.781 165.932L365.088 172.64L367.849 166.749Z" fill="#1E1E1E"/>
<path d="M380.679 186.47L372.779 172.786L367.144 176.039L375.045 189.723L380.679 186.47Z" fill="#1E1E1E"/>
<path d="M333.944 221.586L341.279 207.591L335.516 204.57L328.181 218.566L333.944 221.586Z" fill="#1E1E1E"/>
<path d="M204.888 113.192L175.156 103.115L173.068 109.278L202.8 119.354L204.888 113.192Z" fill="#1E1E1E"/>
<path d="M241.745 202.407L223.188 189.423L219.419 194.809L237.976 207.793L241.745 202.407Z" fill="#1E1E1E"/>
<path d="M237.364 208.668L218.807 195.684L218.255 196.473L236.811 209.457L237.364 208.668Z" fill="#1E1E1E"/>
<path d="M236.473 210.042L217.917 197.058L217.364 197.847L235.921 210.832L236.473 210.042Z" fill="#1E1E1E"/>
<path d="M219.144 186.889L200.587 173.905L196.818 179.29L215.375 192.275L219.144 186.889Z" fill="#1E1E1E"/>
<path d="M214.763 193.15L196.206 180.166L195.654 180.955L214.21 193.939L214.763 193.15Z" fill="#1E1E1E"/>
<path d="M213.872 194.524L195.316 181.54L194.763 182.329L213.32 195.314L213.872 194.524Z" fill="#1E1E1E"/>
<path d="M198.162 172.149L179.605 159.165L175.837 164.551L194.393 177.535L198.162 172.149Z" fill="#1E1E1E"/>
<path d="M193.781 178.41L175.224 165.426L174.672 166.215L193.228 179.2L193.781 178.41Z" fill="#1E1E1E"/>
<path d="M192.89 179.784L174.334 166.8L173.781 167.59L192.338 180.574L192.89 179.784Z" fill="#1E1E1E"/>
<path d="M205.929 165.299L210.274 171.843L210.585 170.174L217.014 174.442L218.659 171.964L212.229 167.696L213.647 166.762L205.929 165.299Z" fill="white"/>
<path opacity="0.8" d="M229.975 181.264C229.157 182.497 227.991 183.459 226.626 184.03C225.26 184.601 223.756 184.753 222.303 184.469C220.851 184.185 219.515 183.476 218.466 182.433C217.416 181.39 216.699 180.058 216.406 178.608C216.113 177.157 216.256 175.652 216.819 174.283C217.381 172.914 218.336 171.742 219.564 170.916C220.792 170.09 222.238 169.647 223.718 169.642C225.198 169.638 226.646 170.072 227.879 170.891C228.698 171.434 229.401 172.133 229.95 172.949C230.498 173.764 230.881 174.68 231.075 175.643C231.27 176.606 231.273 177.598 231.084 178.563C230.896 179.527 230.519 180.445 229.975 181.264Z" fill="#1E1E1E"/>
<path d="M228.584 180.34C227.948 181.298 227.043 182.046 225.982 182.489C224.921 182.932 223.753 183.051 222.624 182.83C221.496 182.609 220.458 182.059 219.643 181.248C218.828 180.438 218.271 179.404 218.043 178.277C217.815 177.15 217.927 175.981 218.363 174.917C218.8 173.854 219.542 172.943 220.496 172.302C221.45 171.66 222.573 171.316 223.723 171.312C224.873 171.308 225.998 171.646 226.955 172.282C227.592 172.704 228.138 173.247 228.564 173.881C228.99 174.514 229.287 175.225 229.439 175.974C229.59 176.722 229.592 177.492 229.446 178.242C229.299 178.991 229.006 179.704 228.584 180.34Z" fill="white"/>
<path opacity="0.8" d="M227.571 179.667C227.068 180.425 226.352 181.016 225.513 181.367C224.674 181.717 223.75 181.811 222.858 181.636C221.966 181.462 221.145 181.027 220.501 180.386C219.856 179.745 219.415 178.927 219.235 178.036C219.055 177.145 219.143 176.22 219.489 175.379C219.834 174.538 220.421 173.819 221.175 173.311C221.93 172.804 222.818 172.532 223.727 172.529C224.636 172.526 225.525 172.793 226.283 173.296C226.786 173.629 227.218 174.059 227.555 174.56C227.892 175.061 228.127 175.623 228.246 176.215C228.366 176.806 228.368 177.416 228.252 178.008C228.136 178.601 227.904 179.164 227.571 179.667Z" fill="#1E1E1E"/>
<path d="M225.977 178.609C225.683 179.052 225.265 179.397 224.775 179.601C224.286 179.806 223.746 179.861 223.225 179.759C222.705 179.657 222.226 179.403 221.849 179.029C221.473 178.655 221.216 178.177 221.111 177.657C221.006 177.137 221.057 176.597 221.259 176.106C221.46 175.615 221.803 175.195 222.243 174.899C222.684 174.603 223.202 174.444 223.733 174.442C224.263 174.441 224.783 174.596 225.225 174.89C225.818 175.283 226.23 175.896 226.371 176.594C226.512 177.292 226.37 178.017 225.977 178.609Z" fill="white"/>
</svg>
