<svg width="16" height="16" viewBox="0 0 16 16" fill="none" xmlns="http://www.w3.org/2000/svg">
<path d="M11 12V13.5C11 13.7761 10.7761 14 10.5 14H5.5C5.22388 14 5 13.7761 5 13.5V12C5 10.3457 6.3457 9 8 9C9.6543 9 11 10.3457 11 12ZM12.5 7C11.395 7 10.4299 7.6001 9.90991 8.48999C11.155 9.16504 12 10.4851 12 12H15C15.2749 12 15.5 11.7749 15.5 11.5V10C15.5 8.34497 14.155 7 12.5 7ZM8 4C6.89722 4 6 4.89722 6 6C6 7.10278 6.89722 8 8 8C9.10278 8 10 7.10278 10 6C10 4.89722 9.10278 4 8 4ZM12.5 2C11.3972 2 10.5 2.89722 10.5 4C10.5 5.10278 11.3972 6 12.5 6C13.6028 6 14.5 5.10278 14.5 4C14.5 2.89722 13.6028 2 12.5 2ZM3.5 2C2.39722 2 1.5 2.89722 1.5 4C1.5 5.10278 2.39722 6 3.5 6C4.60278 6 5.5 5.10278 5.5 4C5.5 2.89722 4.60278 2 3.5 2ZM3.5 7C1.84497 7 0.5 8.34497 0.5 10V11.5C0.5 11.7749 0.725098 12 1 12H4C4 10.4851 4.84497 9.16504 6.09009 8.48999C5.57007 7.6001 4.60498 7 3.5 7Z" fill="#FFE500"/>
</svg>
