<svg width="16" height="16" viewBox="0 0 16 16" fill="none" xmlns="http://www.w3.org/2000/svg">
<path d="M2.66663 10.0001V5.66675C2.66663 4.8711 2.9827 4.10804 3.54531 3.54543C4.10791 2.98282 4.87098 2.66675 5.66663 2.66675C6.46227 2.66675 7.22536 2.98282 7.78796 3.54543C8.35056 4.10804 8.66663 4.8711 8.66663 5.66675V10.3334C8.66663 10.7754 8.84223 11.1993 9.15476 11.5119C9.46736 11.8245 9.89129 12.0001 10.3333 12.0001C10.7753 12.0001 11.1992 11.8245 11.5118 11.5119C11.8244 11.1993 12 10.7754 12 10.3334V5.88675C11.555 5.72948 11.1799 5.41995 10.941 5.01288C10.7022 4.6058 10.615 4.1274 10.6948 3.66222C10.7746 3.19705 11.0162 2.77506 11.377 2.47084C11.7379 2.16662 12.1946 1.99976 12.6666 1.99976C13.1386 1.99976 13.5954 2.16662 13.9562 2.47084C14.317 2.77506 14.5587 3.19705 14.6385 3.66222C14.7183 4.1274 14.631 4.6058 14.3922 5.01288C14.1534 5.41995 13.7783 5.72948 13.3333 5.88675V10.3334C13.3333 11.1291 13.0172 11.8921 12.4546 12.4547C11.892 13.0173 11.129 13.3334 10.3333 13.3334C9.53763 13.3334 8.77456 13.0173 8.21196 12.4547C7.64936 11.8921 7.33329 11.1291 7.33329 10.3334V5.66675C7.33329 5.22472 7.15769 4.8008 6.84516 4.48824C6.53258 4.17568 6.10865 4.00008 5.66663 4.00008C5.2246 4.00008 4.80067 4.17568 4.48811 4.48824C4.17555 4.8008 3.99996 5.22472 3.99996 5.66675V10.0001H5.99996L3.33329 13.3334L0.666626 10.0001H2.66663Z" fill="#FFE500"/>
</svg>
