<svg width="16" height="16" viewBox="0 0 16 16" fill="none" xmlns="http://www.w3.org/2000/svg">
<path fill-rule="evenodd" clip-rule="evenodd" d="M8 15C9.85652 15 11.637 14.2625 12.9497 12.9497C14.2625 11.637 15 9.85652 15 8C15 6.14348 14.2625 4.36301 12.9497 3.05025C11.637 1.7375 9.85652 1 8 1C6.14348 1 4.36301 1.7375 3.05025 3.05025C1.7375 4.36301 1 6.14348 1 8C1 9.85652 1.7375 11.637 3.05025 12.9497C4.36301 14.2625 6.14348 15 8 15ZM8.75 4.5C8.75 4.30109 8.67098 4.11032 8.53033 3.96967C8.38968 3.82902 8.19891 3.75 8 3.75C7.80109 3.75 7.61032 3.82902 7.46967 3.96967C7.32902 4.11032 7.25 4.30109 7.25 4.5V8C7.25 8.11643 7.27711 8.23127 7.32918 8.33541C7.38125 8.43955 7.45685 8.53014 7.55 8.6L9.55 10.1C9.62879 10.1591 9.71845 10.2021 9.81386 10.2265C9.90928 10.251 10.0086 10.2564 10.1061 10.2425C10.2036 10.2285 10.2974 10.1955 10.3821 10.1454C10.4669 10.0952 10.5409 10.0288 10.6 9.95C10.6591 9.87121 10.7021 9.78155 10.7265 9.68614C10.751 9.59072 10.7564 9.49144 10.7425 9.39393C10.7285 9.29643 10.6955 9.20263 10.6454 9.11788C10.5952 9.03313 10.5288 8.95909 10.45 8.9L8.75 7.625V4.5Z" fill="#FFE500"/>
</svg>
