<svg width="54" height="32" viewBox="0 0 54 32" fill="none" xmlns="http://www.w3.org/2000/svg">
<g clip-path="url(#clip0_850_3741)">
<path d="M18.0346 4.48976C18.9135 4.29165 19.7776 4.19908 20.7941 4.0996C21.4499 4.08673 22.0378 3.91833 22.015 3.80426C21.9381 3.41945 18.142 3.07037 17.3007 2.93839C16.4595 2.8064 15.9805 2.64708 15.6132 2.74203C15.3933 2.79889 15.4844 3.24405 15.5929 3.59212C15.6799 3.87131 15.8813 4.09591 16.1322 4.24612C16.331 4.36512 16.5565 4.43221 16.788 4.44122L18.0346 4.48976Z" fill="#230700"/>
<path d="M25.2623 17.8724C25.2623 17.8724 25.8222 19.3887 25.6473 19.567C24.8794 19.9032 24.0905 20.1894 23.2857 20.4237C23.2857 20.4237 22.6802 19.065 22.5306 18.7486C22.5306 18.7486 24.7799 18.3507 25.2623 17.8724Z" fill="#230700"/>
<path d="M23.7036 21.9792L20.3597 27.2151C20.3028 27.3073 20.2118 27.37 20.1067 27.3894C20.0017 27.4088 19.8912 27.3833 19.7996 27.3186C19.7542 27.2865 19.7148 27.2458 19.6837 27.1987C19.6526 27.1516 19.6303 27.0991 19.6181 27.0442C19.606 26.9892 19.6042 26.9329 19.6128 26.8785C19.6215 26.824 19.6405 26.7725 19.6687 26.7269L23.0126 21.491C23.0695 21.3988 23.1605 21.3361 23.2655 21.3167C23.3705 21.2973 23.481 21.3228 23.5727 21.3875C23.6643 21.4522 23.7296 21.551 23.7541 21.6619C23.7787 21.7729 23.7605 21.887 23.7036 21.9792Z" fill="#230700"/>
<path d="M18.3219 26.916L20.5532 28.6228C20.6321 28.6832 20.7302 28.7113 20.8259 28.7009C20.9215 28.6904 21.007 28.6424 21.0634 28.5673L21.2052 28.3786C21.2616 28.3035 21.2843 28.2075 21.2684 28.1117C21.2525 28.016 21.1992 27.9283 21.1203 27.8679L18.889 26.161C18.8499 26.1312 18.8057 26.1089 18.7589 26.0955C18.7122 26.0822 18.6637 26.0779 18.6163 26.0831C18.569 26.0882 18.5236 26.1027 18.4829 26.1256C18.4421 26.1485 18.4068 26.1794 18.3789 26.2166L18.2371 26.4054C18.1807 26.4805 18.1579 26.5764 18.1738 26.6722C18.1897 26.768 18.243 26.8557 18.3219 26.916Z" fill="#230700"/>
<path d="M37.6768 5.75987C37.678 5.59018 37.6117 5.42695 37.4926 5.3061C37.3735 5.18526 37.2112 5.11668 37.0415 5.11546L19.4721 9.91114C19.432 10.3366 19.4004 10.763 19.3825 11.1902L33.3292 7.42606C33.4364 7.39626 33.5503 7.40209 33.6538 7.44269C33.7574 7.48328 33.8449 7.55644 33.9032 7.65112C33.9615 7.7458 33.9875 7.85688 33.9772 7.96761C33.9669 8.07834 33.9209 8.18271 33.8461 8.26501L22.0331 20.8134C22.3149 21.1582 23.0822 22.0497 23.3599 22.3976L37.4652 7.3907L37.2931 6.34057C37.4063 6.29122 37.5028 6.2101 37.5709 6.10704C37.639 6.00397 37.6758 5.88339 37.6768 5.75987Z" fill="#230700"/>
<path d="M36.4395 5.2567L37.6455 5.0293L38.4932 9.52455L37.2872 9.75196L36.4395 5.2567Z" fill="#230700"/>
<path d="M11.125 20.7634L11.1239 20.9311C11.1236 20.9676 11.1305 21.0039 11.1443 21.0377C11.158 21.0715 11.1783 21.1023 11.2039 21.1283C11.2295 21.1544 11.2601 21.1751 11.2937 21.1893C11.3273 21.2035 11.3635 21.2109 11.4 21.2112L12.3016 21.2176C12.4367 21.2185 12.5698 21.2507 12.6904 21.3116C12.811 21.3724 12.9159 21.4604 12.9969 21.5685C13.0779 21.6766 13.1328 21.802 13.1574 21.9348C13.1819 22.0677 13.1754 22.2044 13.1384 22.3343L12.3021 25.2702C12.2928 25.337 12.2596 25.3981 12.2085 25.4422C12.1575 25.4864 12.0921 25.5104 12.0247 25.5099C11.9863 25.5097 11.9484 25.5014 11.9134 25.4858C11.8783 25.4702 11.8469 25.4474 11.821 25.419C11.7952 25.3907 11.7755 25.3573 11.7632 25.3209C11.7509 25.2845 11.7463 25.246 11.7496 25.2078L11.8949 23.5346C11.9188 23.2603 11.8328 22.9879 11.656 22.7769C11.4792 22.566 11.2259 22.4338 10.9517 22.4094L10.7471 22.3912C10.6878 22.3859 10.6284 22.3997 10.5776 22.4307L10.1563 22.9191C10.074 23.0146 9.97216 23.0912 9.85765 23.1438C9.74314 23.1965 9.61866 23.2239 9.49263 23.2243L9.47653 23.2243C9.43109 23.2243 9.38631 23.2134 9.34606 23.1923C9.30581 23.1712 9.2713 23.1406 9.24548 23.1032C9.21967 23.0658 9.20332 23.0227 9.19786 22.9776C9.1924 22.9325 9.19801 22.8868 9.21416 22.8443L9.52479 22.0262L9.31001 21.9873C9.27306 21.9806 9.23787 21.9665 9.20652 21.9459C9.17518 21.9252 9.14833 21.8984 9.12762 21.8671C9.10691 21.8357 9.09275 21.8005 9.08601 21.7636C9.07927 21.7267 9.08008 21.6888 9.08839 21.6521L9.21088 21.1125C9.22122 21.067 9.24281 21.0249 9.27366 20.9899L9.72477 20.4793C9.75419 20.446 9.79115 20.4203 9.83255 20.4042C9.87396 20.3882 9.91861 20.3822 9.96277 20.3869L10.8766 20.4849C10.9452 20.4922 11.0086 20.5248 11.0545 20.5762C11.1004 20.6277 11.1255 20.6944 11.125 20.7634Z" fill="#230700"/>
<path d="M11.7708 26.2872C11.5426 26.2853 11.324 26.1947 11.1615 26.0345C10.9989 25.8743 10.9051 25.6571 10.8999 25.4289L10.8348 22.6112L10.5497 22.7704C10.3417 22.8866 10.0991 22.925 9.86542 22.8785C9.63174 22.8321 9.42224 22.704 9.27445 22.5171C9.12667 22.3303 9.05028 22.0968 9.05897 21.8588C9.06766 21.6207 9.16086 21.3935 9.32187 21.2179L10.8171 19.5871L10.866 19.5846L22.1147 18.9063L22.1275 19.1462L10.9279 19.8221L9.4993 21.3802C9.37692 21.5137 9.30605 21.6864 9.29941 21.8673C9.29278 22.0483 9.35081 22.2257 9.46308 22.3677C9.57536 22.5098 9.73456 22.6072 9.91215 22.6426C10.0897 22.6779 10.2741 22.6489 10.4322 22.5607L11.0662 22.2066L11.1402 25.4232C11.1421 25.5086 11.1612 25.5928 11.1963 25.6707C11.2313 25.7486 11.2817 25.8187 11.3444 25.8768C11.407 25.9349 11.4807 25.9798 11.561 26.0089C11.6414 26.038 11.7267 26.0506 11.8121 26.0461L23.7465 25.2896L23.7602 25.5295L11.8254 26.286C11.8071 26.2871 11.7888 26.2873 11.7708 26.2872Z" fill="#230700"/>
<path d="M11.0686 25.5006C11.0676 25.6405 11.1081 25.7776 11.1851 25.8946C11.262 26.0115 11.3719 26.103 11.5008 26.1575C11.6298 26.212 11.7719 26.227 11.9094 26.2007C12.0469 26.1743 12.1735 26.1078 12.2731 26.0096C12.3728 25.9113 12.4411 25.7857 12.4694 25.6486C12.4977 25.5115 12.4847 25.3691 12.432 25.2394C12.3794 25.1097 12.2895 24.9985 12.1736 24.9199C12.0578 24.8414 11.9213 24.7989 11.7813 24.7979C11.6884 24.7972 11.5962 24.8149 11.5101 24.8498C11.424 24.8848 11.3456 24.9364 11.2794 25.0016C11.2132 25.0669 11.1606 25.1445 11.1244 25.2301C11.0882 25.3157 11.0693 25.4076 11.0686 25.5006Z" fill="#230700"/>
<path d="M23.5242 21.3154C23.4075 21.1873 23.2588 21.0961 23.0971 21.0534C22.9354 21.0106 22.7678 21.0183 22.6157 21.0753C22.4635 21.1324 22.3336 21.2363 22.2422 21.3739C22.1509 21.5116 22.1023 21.6767 22.1026 21.8486C22.1029 22.0204 22.1521 22.1911 22.2439 22.3392C22.3357 22.4873 22.4661 22.606 22.6185 22.6805C22.7709 22.7549 22.9385 22.7817 23.1001 22.7574C23.2617 22.7331 23.41 22.6588 23.5264 22.544C23.6036 22.4677 23.6648 22.3755 23.7065 22.2725C23.7483 22.1695 23.7696 22.0577 23.7694 21.9436C23.7692 21.8295 23.7474 21.7153 23.7054 21.6076C23.6633 21.4998 23.6018 21.4005 23.5242 21.3154Z" fill="#230700"/>
<path d="M23.2817 21.5547C23.2131 21.4793 23.1257 21.4257 23.0306 21.4006C22.9355 21.3754 22.837 21.3799 22.7475 21.4135C22.6581 21.447 22.5817 21.5081 22.528 21.5891C22.4743 21.67 22.4457 21.7671 22.4459 21.8681C22.4461 21.9691 22.475 22.0695 22.529 22.1566C22.583 22.2436 22.6596 22.3135 22.7492 22.3572C22.8388 22.401 22.9373 22.4167 23.0324 22.4024C23.1274 22.3881 23.2146 22.3445 23.283 22.277C23.3284 22.2321 23.3644 22.1779 23.3889 22.1173C23.4134 22.0568 23.426 21.9911 23.4259 21.924C23.4258 21.8569 23.413 21.7898 23.3882 21.7264C23.3635 21.663 23.3273 21.6047 23.2817 21.5547Z" fill="#230700"/>
<path d="M36.1699 2.53516L36.7189 2.42475L36.5908 1.78791C36.5805 1.73642 36.5501 1.69115 36.5063 1.66207C36.4626 1.63298 36.4091 1.62247 36.3576 1.63282L36.197 1.66512C36.1455 1.67548 36.1002 1.70586 36.0711 1.74961C36.042 1.79336 36.0315 1.84688 36.0419 1.89839L36.1699 2.53516Z" fill="#230700"/>
<g style="mix-blend-mode:multiply">
<path d="M51.6123 21.8617C51.5992 23.7163 51.0364 25.5252 49.9952 27.0599C48.9539 28.5946 47.481 29.786 45.7626 30.4835C44.0442 31.1811 42.1576 31.3534 40.3413 30.9787C38.525 30.604 36.8605 29.6991 35.5585 28.3785C34.2564 27.0579 33.3753 25.3808 33.0264 23.5594C32.6775 21.7379 32.8765 19.8539 33.5983 18.1456C34.3202 16.4373 35.5324 14.9814 37.0816 13.962C38.6309 12.9426 40.4477 12.4055 42.3022 12.4187C44.789 12.4363 47.167 13.4411 48.913 15.212C50.659 16.9829 51.6299 19.3749 51.6123 21.8617ZM49.8666 21.8494C49.8773 20.3401 49.4403 18.8616 48.6107 17.6007C47.7811 16.3399 46.5962 15.3534 45.2059 14.7659C43.8157 14.1785 42.2824 14.0165 40.8001 14.3005C39.3177 14.5844 37.9529 15.3015 36.8781 16.3612C35.8034 17.4208 35.067 18.7754 34.762 20.2535C34.4571 21.7317 34.5973 23.2671 35.165 24.6655C35.7327 26.064 36.7024 27.2627 37.9513 28.1101C39.2003 28.9575 40.6724 29.4155 42.1817 29.4261C44.2055 29.4405 46.1522 28.6503 47.5934 27.2293C49.0346 25.8084 49.8523 23.8732 49.8666 21.8494Z" fill="#230700"/>
</g>
<g style="mix-blend-mode:multiply">
<path d="M20.0215 21.6381C20.0084 23.4926 19.4456 25.3016 18.4043 26.8362C17.3631 28.3709 15.8901 29.5623 14.1718 30.2598C12.4534 30.9574 10.5668 31.1297 8.75046 30.755C6.93415 30.3803 5.26974 29.4754 3.96771 28.1548C2.66567 26.8341 1.7845 25.1571 1.4356 23.3356C1.0867 21.5142 1.28576 19.6302 2.0076 17.9219C2.72944 16.2136 3.94164 14.7577 5.49091 13.7383C7.04018 12.719 8.85696 12.1819 10.7115 12.195C11.9428 12.2038 13.1604 12.4549 14.2947 12.9342C15.4289 13.4135 16.4577 14.1115 17.3222 14.9883C18.1868 15.8652 18.8701 16.9038 19.3333 18.0448C19.7964 19.1857 20.0303 20.4067 20.0215 21.6381ZM18.2759 21.6257C18.2866 20.1165 17.8495 18.6379 17.0199 17.3771C16.1903 16.1163 15.0055 15.1298 13.6152 14.5423C12.2249 13.9549 10.6917 13.7928 9.20934 14.0768C7.72701 14.3607 6.36216 15.0779 5.2874 16.1375C4.21263 17.1971 3.47623 18.5517 3.17129 20.0298C2.86636 21.508 3.0066 23.0434 3.57428 24.4418C4.14196 25.8403 5.11157 27.039 6.36052 27.8864C7.60947 28.7338 9.08165 29.1918 10.5909 29.2025C11.593 29.2096 12.5867 29.0193 13.5152 28.6423C14.4438 28.2654 15.289 27.7093 16.0026 27.0057C16.7162 26.3022 17.2843 25.4649 17.6743 24.5418C18.0644 23.6187 18.2688 22.6278 18.2759 21.6257Z" fill="#230700"/>
</g>
<path d="M12.0542 20.9009C12.0526 21.1359 11.9813 21.3651 11.8494 21.5596C11.7174 21.754 11.5308 21.905 11.3131 21.9934C11.0954 22.0818 10.8564 22.1036 10.6262 22.0561C10.3961 22.0087 10.1852 21.894 10.0202 21.7267C9.85525 21.5594 9.7436 21.3469 9.69939 21.1161C9.65518 20.8853 9.6804 20.6466 9.77185 20.4302C9.86331 20.2137 10.0169 20.0293 10.2132 19.9001C10.4095 19.771 10.6397 19.7029 10.8746 19.7046C11.0306 19.7057 11.1849 19.7375 11.3286 19.7982C11.4723 19.8589 11.6027 19.9473 11.7122 20.0584C11.8217 20.1695 11.9083 20.3011 11.967 20.4457C12.0257 20.5902 12.0553 20.7449 12.0542 20.9009Z" fill="#230700"/>
<path d="M37.501 4.91157L36.5717 5.10524L36.1181 3.07601L36.0328 3.08636C35.9914 3.09122 35.9493 3.08778 35.9092 3.07624C35.8691 3.0647 35.8316 3.0453 35.799 3.01916C35.7665 2.99302 35.7394 2.96067 35.7195 2.92397C35.6995 2.88728 35.6871 2.84699 35.6829 2.80544L35.6602 2.58258C35.652 2.50141 35.6757 2.42023 35.7262 2.35616C35.7767 2.29209 35.8501 2.25015 35.931 2.23919L35.9049 2.12275C35.8974 2.08675 35.9045 2.04925 35.9247 2.01849C35.9448 1.98773 35.9764 1.96624 36.0124 1.95873L36.6702 1.82167C36.6881 1.81795 36.7065 1.81777 36.7244 1.82115C36.7422 1.82454 36.7593 1.83143 36.7745 1.8414C36.7897 1.85138 36.8029 1.86425 36.8131 1.8793C36.8234 1.89435 36.8306 1.91127 36.8343 1.9291L36.8778 2.12369L39.1382 1.84941L39.2246 2.69895L37.065 2.96108L37.501 4.91157Z" fill="#230700"/>
<path d="M42.4968 21.0248C42.4987 21.0674 42.488 21.1097 42.4658 21.1462C42.4437 21.1827 42.4113 21.2118 42.3726 21.2299C42.3339 21.248 42.2908 21.2542 42.2486 21.2477C42.2064 21.2413 42.167 21.2224 42.1355 21.1936C42.104 21.1648 42.0818 21.1273 42.0716 21.0859C42.0614 21.0444 42.0638 21.0009 42.0783 20.9607C42.0929 20.9206 42.119 20.8857 42.1534 20.8604C42.1878 20.8351 42.229 20.8206 42.2716 20.8187C42.2999 20.8175 42.3282 20.8218 42.3549 20.8315C42.3815 20.8411 42.406 20.856 42.4269 20.8751C42.4478 20.8942 42.4648 20.9173 42.4768 20.943C42.4888 20.9686 42.4956 20.9964 42.4968 21.0248Z" fill="#230700"/>
<path d="M36.5939 4.57853L37.2708 4.4375C37.3085 4.42963 37.3474 4.42927 37.3852 4.43643C37.4231 4.4436 37.4591 4.45814 37.4913 4.47924C37.5235 4.50034 37.5513 4.52758 37.573 4.5594C37.5946 4.59122 37.6098 4.62702 37.6177 4.66472C37.6295 4.66974 37.6399 4.6775 37.6481 4.68736C37.6563 4.69722 37.662 4.70889 37.6648 4.72141L37.7388 5.07676C37.7428 5.09573 37.739 5.11549 37.7284 5.13169C37.7178 5.1479 37.7011 5.15923 37.6822 5.16319L36.5065 5.40815C36.4876 5.41208 36.4678 5.40834 36.4516 5.39773C36.4354 5.38711 36.4241 5.37048 36.4202 5.35152L36.3461 4.99617C36.3436 4.98359 36.3442 4.97059 36.3478 4.95829C36.3514 4.94598 36.3579 4.9347 36.3667 4.9254C36.3588 4.8877 36.3584 4.84884 36.3656 4.811C36.3728 4.77317 36.3873 4.73711 36.4084 4.7049C36.4295 4.67269 36.4568 4.64495 36.4886 4.62327C36.5204 4.60158 36.5562 4.58638 36.5939 4.57853Z" fill="#230700"/>
<path d="M38.7373 3.07951L39.2871 3.06862C39.3038 3.06828 39.3203 3.06467 39.3355 3.05798C39.3508 3.05129 39.3646 3.04167 39.3762 3.02964C39.3878 3.01761 39.3968 3.00342 39.4029 2.98789C39.409 2.97235 39.4119 2.95576 39.4116 2.93908L39.3863 1.66464C39.3857 1.63096 39.3717 1.59892 39.3474 1.57557C39.3231 1.55223 39.2905 1.53949 39.2568 1.54016L38.707 1.55106C38.6904 1.55139 38.6739 1.55501 38.6586 1.56169C38.6434 1.56838 38.6295 1.57801 38.618 1.59003C38.6064 1.60206 38.5974 1.61624 38.5913 1.63177C38.5852 1.6473 38.5822 1.6639 38.5826 1.68057L38.6078 2.95511C38.6085 2.98878 38.6225 3.02079 38.6468 3.04412C38.6711 3.06745 38.7036 3.08018 38.7373 3.07951Z" fill="#230700"/>
<path d="M39.5928 2.90149L39.3595 2.96485C39.3462 2.96846 39.3321 2.96874 39.3183 2.96568C39.3045 2.96261 39.2914 2.95628 39.28 2.94716C39.2685 2.93804 39.259 2.92638 39.2523 2.91307C39.2455 2.89976 39.2416 2.88514 39.2409 2.87036L39.1862 1.73046C39.1854 1.71568 39.1879 1.70111 39.1934 1.68787C39.1989 1.67463 39.2073 1.66307 39.2178 1.65409C39.2284 1.6451 39.2409 1.63893 39.2544 1.63603C39.2679 1.63313 39.282 1.63358 39.2957 1.63737L39.5352 1.70353C39.5551 1.70899 39.5731 1.72122 39.5863 1.73827C39.5995 1.75532 39.6072 1.77623 39.6082 1.7977L39.6568 2.80808C39.6578 2.82955 39.6521 2.85037 39.6405 2.86728C39.6289 2.88418 39.6122 2.89622 39.5928 2.90149Z" fill="#230700"/>
<path d="M38.4579 2.91659L38.6975 2.98274C38.7112 2.98652 38.7253 2.98696 38.7388 2.98406C38.7523 2.98115 38.7648 2.97498 38.7754 2.96598C38.786 2.95699 38.7943 2.94542 38.7998 2.93218C38.8053 2.91894 38.8078 2.90438 38.807 2.88959L38.7522 1.74971C38.7515 1.73492 38.7477 1.7203 38.7409 1.70699C38.7341 1.69368 38.7247 1.68203 38.7132 1.67292C38.7018 1.6638 38.6887 1.65748 38.6749 1.65442C38.6611 1.65136 38.647 1.65165 38.6337 1.65528L38.4003 1.71863C38.381 1.72389 38.3643 1.73593 38.3527 1.75283C38.3411 1.76974 38.3354 1.79056 38.3364 1.81204L38.385 2.82241C38.386 2.84387 38.3938 2.86477 38.4069 2.88182C38.4201 2.89887 38.4381 2.9111 38.4579 2.91659Z" fill="#230700"/>
<path d="M11.0752 20.8943C11.0749 20.937 11.0619 20.9786 11.038 21.0139C11.014 21.0493 10.9801 21.0767 10.9405 21.0928C10.901 21.1088 10.8575 21.1128 10.8157 21.1041C10.7739 21.0955 10.7356 21.0747 10.7056 21.0443C10.6757 21.0139 10.6554 20.9753 10.6473 20.9333C10.6393 20.8914 10.6439 20.848 10.6605 20.8087C10.6771 20.7694 10.705 20.7359 10.7407 20.7124C10.7764 20.689 10.8182 20.6766 10.8609 20.6769C10.9181 20.6773 10.9729 20.7004 11.013 20.7412C11.0532 20.782 11.0756 20.837 11.0752 20.8943Z" fill="#230700"/>
<path d="M42.9726 2.70588C42.9491 2.70397 42.8972 2.68542 42.9726 2.70588V2.70588Z" fill="#230700"/>
<path d="M43.2731 21.2223C43.2767 21.3818 43.233 21.5389 43.1474 21.6735C43.0618 21.8082 42.9382 21.9144 42.7922 21.9789C42.6463 22.0433 42.4845 22.063 42.3273 22.0354C42.1701 22.0079 42.0247 21.9344 41.9093 21.8241C41.7939 21.7139 41.7138 21.572 41.6791 21.4163C41.6444 21.2605 41.6567 21.098 41.7143 20.9492C41.772 20.8004 41.8725 20.6721 42.0031 20.5805C42.1337 20.4888 42.2885 20.4379 42.4481 20.4343C42.554 20.4318 42.6593 20.4503 42.7581 20.4886C42.8569 20.5269 42.9472 20.5842 43.0238 20.6574C43.1004 20.7306 43.1618 20.8181 43.2046 20.9151C43.2474 21.012 43.2706 21.1164 43.2731 21.2223Z" fill="#230700"/>
<path d="M42.9731 21.2417C42.9786 21.3465 42.9541 21.4488 42.903 21.5358C42.8518 21.6228 42.7762 21.6905 42.6856 21.7304C42.5951 21.7702 42.4938 21.7805 42.3944 21.7598C42.295 21.7391 42.2021 21.6884 42.1274 21.6141C42.0527 21.5398 41.9996 21.4453 41.9747 21.3425C41.9498 21.2396 41.9544 21.1332 41.9877 21.0364C42.021 20.9397 42.0817 20.8572 42.162 20.7992C42.2424 20.7412 42.3387 20.7103 42.439 20.7106C42.5055 20.7108 42.5721 20.7246 42.635 20.7514C42.6979 20.7782 42.7557 20.8173 42.8053 20.8667C42.8549 20.916 42.8953 20.9745 42.9241 21.0388C42.9529 21.1032 42.9696 21.1721 42.9731 21.2417Z" fill="#230700"/>
<path d="M42.6928 21.2407C42.6952 21.2875 42.6843 21.3332 42.6615 21.3721C42.6386 21.4109 42.6048 21.4412 42.5643 21.459C42.5239 21.4768 42.4786 21.4814 42.4342 21.4721C42.3898 21.4629 42.3483 21.4402 42.3149 21.407C42.2816 21.3738 42.2578 21.3316 42.2467 21.2857C42.2356 21.2397 42.2376 21.1921 42.2525 21.1489C42.2674 21.1057 42.2945 21.0688 42.3304 21.0429C42.3663 21.017 42.4094 21.0032 42.4541 21.0033C42.5142 21.0035 42.5731 21.0286 42.6178 21.0731C42.6626 21.1176 42.6896 21.1779 42.6928 21.2407Z" fill="#230700"/>
<path d="M43.3497 22.7387L42.3037 23.0742L37.9079 9.69571L38.9539 9.36015L43.3497 22.7387Z" fill="#230700"/>
<path d="M37.1333 9.58457L38.623 9.30371L39.0173 11.3951L37.5275 11.6759L37.1333 9.58457Z" fill="#230700"/>
<path d="M22.5695 21.2643L11.896 20.1619L20.0304 11.5259C19.8832 11.3078 19.7451 11.084 19.6161 10.8544L10.5667 20.492C10.5351 20.5423 10.5169 20.5999 10.514 20.6592C10.511 20.7186 10.5233 20.7776 10.5497 20.8308C10.5762 20.884 10.6158 20.9296 10.6649 20.963C10.714 20.9965 10.7708 21.0168 10.83 21.022L22.4246 22.197C22.4148 21.9643 22.5739 21.4975 22.5695 21.2643Z" fill="#230700"/>
<path d="M22.9332 22.3301C22.8396 22.3293 22.7487 22.2983 22.6742 22.2417C22.5997 22.185 22.5455 22.1058 22.5198 22.0158L17.5053 4.49385C17.4895 4.43908 17.4846 4.38171 17.491 4.32506C17.4974 4.2684 17.5148 4.21356 17.5424 4.16367C17.57 4.11378 17.6072 4.06983 17.6518 4.03433C17.6964 3.99883 17.7476 3.97248 17.8024 3.9568C17.8572 3.94111 17.9146 3.93638 17.9712 3.9429C18.0279 3.94943 18.0826 3.96706 18.1325 3.9948C18.1823 4.02253 18.2261 4.05982 18.2615 4.10453C18.2969 4.14924 18.3231 4.20049 18.3386 4.25535L23.3531 21.7775C23.3715 21.8422 23.3747 21.9104 23.3622 21.9766C23.3498 22.0428 23.3221 22.1051 23.2813 22.1588C23.2406 22.2124 23.1879 22.2558 23.1275 22.2855C23.0671 22.3153 23.0005 22.3305 22.9332 22.3301Z" fill="#230700"/>
<path d="M18.2636 4.64067L17.6284 4.77668C17.5704 4.78912 17.5105 4.79 17.4521 4.77928C17.3937 4.76855 17.3381 4.74644 17.2882 4.71419C17.2384 4.68195 17.1954 4.64022 17.1618 4.59136C17.1281 4.5425 17.1043 4.48748 17.0919 4.42945C17.0795 4.37142 17.0786 4.31149 17.0893 4.25313C17.1001 4.19476 17.1222 4.13908 17.1544 4.08926C17.1867 4.03944 17.2284 3.99646 17.2773 3.96278C17.3261 3.9291 17.3811 3.90536 17.4392 3.89294L18.0745 3.75693C18.1917 3.73184 18.314 3.75432 18.4146 3.81945C18.5152 3.88457 18.5859 3.98698 18.611 4.10417C18.6234 4.1622 18.6243 4.22212 18.6135 4.28049C18.6028 4.33886 18.5807 4.39454 18.5484 4.44436C18.5162 4.49418 18.4744 4.53716 18.4256 4.57084C18.3767 4.60453 18.3217 4.62825 18.2636 4.64067Z" fill="#230700"/>
<path d="M27.1762 16.9321L24.542 21.1864C24.5138 21.232 24.477 21.2709 24.4336 21.3008C24.3902 21.3307 24.3411 21.351 24.2892 21.3607C24.2372 21.3703 24.1833 21.369 24.1306 21.3568C24.078 21.3447 24.0275 21.3219 23.9822 21.2899C23.8906 21.2251 23.8254 21.1265 23.8008 21.0156C23.7763 20.9047 23.7944 20.7906 23.8513 20.6984L26.4856 16.444C26.5138 16.3984 26.5506 16.3595 26.594 16.3296C26.6373 16.2997 26.6864 16.2794 26.7384 16.2698C26.7904 16.2602 26.8442 16.2615 26.8969 16.2737C26.9496 16.2858 27 16.3085 27.0454 16.3406C27.0907 16.3726 27.1301 16.4134 27.1612 16.4604C27.1923 16.5075 27.2146 16.56 27.2267 16.6149C27.2389 16.6698 27.2407 16.7261 27.232 16.7805C27.2233 16.8349 27.2044 16.8864 27.1762 16.9321Z" fill="#230700"/>
<path d="M28.3105 17.0296L25.7537 15.8672C25.6633 15.8261 25.5618 15.8208 25.4716 15.8525C25.3814 15.8843 25.3099 15.9504 25.2728 16.0363L25.1795 16.2524C25.1424 16.3383 25.1427 16.4371 25.1804 16.5269C25.218 16.6167 25.29 16.6903 25.3804 16.7314L27.9372 17.8938C28.0276 17.9349 28.1291 17.9402 28.2193 17.9085C28.3094 17.8768 28.381 17.8107 28.4181 17.7247L28.5114 17.5086C28.5485 17.4227 28.5482 17.3239 28.5105 17.2341C28.4729 17.1443 28.4009 17.0707 28.3105 17.0296Z" fill="#230700"/>
<path d="M19.2731 21.8654C19.2782 21.1411 19.498 20.4346 19.9047 19.8352C20.3113 19.2358 20.8866 18.7705 21.5578 18.4981C22.2289 18.2256 22.9657 18.1583 23.6751 18.3047C24.3845 18.451 25.0346 18.8044 25.5431 19.3202C26.0516 19.836 26.3958 20.491 26.5321 21.2024C26.6683 21.9138 26.5906 22.6496 26.3087 23.3168C26.0268 23.984 25.5533 24.5527 24.9482 24.9508C24.3432 25.3489 23.6336 25.5587 22.9093 25.5536C22.4284 25.5502 21.9528 25.4521 21.5098 25.2649C21.0668 25.0777 20.665 24.8051 20.3273 24.4626C19.9897 24.1201 19.7228 23.7145 19.5419 23.2689C19.361 22.8232 19.2696 22.3464 19.2731 21.8654ZM22.9152 24.7195C23.4745 24.7234 24.0225 24.5614 24.4897 24.254C24.957 23.9465 25.3226 23.5074 25.5403 22.9922C25.758 22.477 25.8181 21.9087 25.7128 21.3594C25.6076 20.81 25.3418 20.3042 24.9491 19.9059C24.5564 19.5076 24.0544 19.2346 23.5066 19.1216C22.9588 19.0086 22.3898 19.0606 21.8715 19.271C21.3532 19.4814 20.909 19.8407 20.5949 20.3036C20.2809 20.7664 20.1111 21.312 20.1072 21.8714C20.1019 22.6214 20.3947 23.3429 20.9213 23.877C21.4479 24.4111 22.1651 24.7142 22.9152 24.7195Z" fill="#230700"/>
</g>
<defs>
<clipPath id="clip0_850_3741">
<rect width="54" height="32" fill="white"/>
</clipPath>
</defs>
</svg>
