<svg width="26" height="26" viewBox="0 0 26 26" fill="none" xmlns="http://www.w3.org/2000/svg">
<path d="M24.453 6.96681C24.6179 6.40989 24.453 6 23.66 6H21.0358C20.3675 6 20.06 6.35197 19.8952 6.74405C19.8952 6.74405 18.5586 10.0009 16.6695 12.1128C16.0591 12.7231 15.7784 12.9192 15.4443 12.9192C15.2794 12.9192 15.0255 12.7231 15.0255 12.1662V6.96681C15.0255 6.29851 14.8384 6 14.2859 6H10.1602C9.74142 6 9.49192 6.31188 9.49192 6.60147C9.49192 7.23414 10.4365 7.38116 10.5345 9.16331V13.0306C10.5345 13.8771 10.383 14.033 10.0488 14.033C9.15777 14.033 6.99246 10.7628 5.70932 7.02028C5.45091 6.29405 5.19695 6 4.52419 6H1.89998C1.15148 6 1 6.35197 1 6.74405C1 7.43908 1.89107 10.892 5.14794 15.4543C7.3177 18.5686 10.3741 20.2572 13.1542 20.2572C14.825 20.2572 15.0299 19.8829 15.0299 19.2369C15.0299 16.2607 14.8785 15.98 15.7161 15.98C16.1037 15.98 16.772 16.176 18.3314 17.6775C20.1135 19.4596 20.4076 20.2572 21.4056 20.2572H24.0298C24.7783 20.2572 25.157 19.8829 24.9387 19.1433C24.4397 17.5884 21.067 14.3894 20.9155 14.1756C20.5279 13.6766 20.6392 13.4538 20.9155 13.0083C20.9199 13.0038 24.1233 8.495 24.453 6.96681Z" fill="#B6FF00"/>
</svg>
