<svg width="40" height="40" viewBox="0 0 40 40" fill="none" xmlns="http://www.w3.org/2000/svg">
<g clip-path="url(#clip0_366_132)">
<rect width="40" height="40" rx="20" fill="#1E1E1E"/>
<path d="M8.29557 19.997C8.4773 19.3739 8.30822 18.8269 7.90881 18.5151L7.90628 18.5037C7.26793 18.1097 6.98192 17.3276 7.24211 16.434C7.52661 15.4577 6.9556 14.6702 5.96341 14.6702C4.97121 14.6702 3.93852 15.4577 3.65605 16.434C3.46976 17.0746 3.65352 17.6335 4.0828 17.9448C4.6933 18.3507 4.96513 19.1208 4.71 19.997C4.42551 20.9728 4.99652 21.7608 5.98872 21.7608C6.98091 21.7608 8.01411 20.9728 8.29557 19.997Z" fill="#B6FF00"/>
<path d="M25.0681 22.0921L25.0777 22.0806C25.9459 21.6821 26.6784 20.9076 26.9386 20.0159C27.2221 19.0426 28.2507 18.2566 29.2414 18.2566C30.2321 18.2566 30.8031 19.0426 30.5191 20.0159C30.3328 20.6555 29.8245 21.2114 29.2145 21.5232C28.3687 21.9282 27.6513 22.6903 27.3922 23.5699C27.1087 24.5438 26.0796 25.3298 25.0888 25.3298C24.0982 25.3298 23.5277 24.5438 23.8112 23.5699C24.001 22.9483 24.488 22.4029 25.0681 22.0921Z" fill="#B6FF00"/>
<path d="M12.7353 19.997C12.9954 19.1034 13.7371 18.3239 14.5977 17.9254L14.6073 17.9134C15.194 17.6021 15.682 17.0552 15.8637 16.432C16.1482 15.4557 15.5772 14.6682 14.585 14.6682C13.5928 14.6682 12.5602 15.4557 12.2777 16.432C12.0412 17.2434 11.417 17.9547 10.6577 18.3781C9.96017 18.6601 9.35726 19.2718 9.15174 19.9771C8.89508 20.8592 8.18283 21.6413 7.33795 22.0413C6.72289 22.3466 6.20553 22.911 6.01721 23.558C5.73272 24.5338 6.30374 25.3218 7.29593 25.3218C8.28812 25.3218 9.32081 24.5338 9.60328 23.558L9.60834 23.5401C9.83462 22.764 10.4249 22.0707 11.1417 21.6413C11.8701 21.3768 12.5141 20.7477 12.7282 20.0124L12.7332 19.995L12.7353 19.997Z" fill="#B6FF00"/>
<path d="M30.6776 17.9343V17.9229C30.2726 17.6106 30.107 17.0626 30.2888 16.438C30.5738 15.4597 31.605 14.6702 32.6033 14.6702C33.6015 14.6702 34.1725 15.4597 33.887 16.438C33.6501 17.2509 33.8622 17.9642 34.374 18.3881C34.9091 18.671 35.1566 19.2847 34.9506 19.991C34.6929 20.8747 34.9658 21.6468 35.5803 22.0477C36.0111 22.3601 36.1958 22.9194 36.0086 23.562C35.7236 24.5403 34.6898 25.3298 33.6946 25.3298C32.6994 25.3298 32.1254 24.5403 32.4103 23.562C32.6478 22.7486 32.4372 22.0298 31.9193 21.6054C31.3898 21.323 31.1413 20.7158 31.3473 20.0085C31.5994 19.1129 31.3103 18.3353 30.6776 17.9343Z" fill="#B6FF00"/>
<path d="M25.8109 20.0599C26.0949 19.0836 25.5238 18.2961 24.5317 18.2961C24.2194 18.3007 23.9116 18.3708 23.629 18.5018H23.623C23.6094 18.5078 23.5881 18.5193 23.5724 18.5252C23.3932 18.6074 22.7898 18.8739 22.2461 18.8739C21.7905 18.8739 21.4063 18.6797 21.2235 18.5681C21.1877 18.539 21.149 18.5133 21.1082 18.4914L21.1041 18.4859C20.8754 18.357 20.6153 18.2919 20.3518 18.2976H20.3043C20.008 18.3085 19.7171 18.3784 19.4492 18.5033H19.4431C19.4295 18.5093 19.4083 18.5208 19.3926 18.5267C19.2133 18.6089 18.6104 18.8754 18.0663 18.8754C17.7115 18.8677 17.3654 18.766 17.0644 18.581C16.8366 18.3987 16.5309 18.2991 16.1725 18.2991H16.1244C15.1357 18.3285 14.1324 19.1045 13.8534 20.0629C13.6631 20.7154 13.8616 21.2858 14.3091 21.5916C14.9085 21.997 15.1655 22.7557 14.9119 23.6258C14.6275 24.6017 15.1985 25.3897 16.1907 25.3897H16.2266C16.5389 25.3852 16.8467 25.315 17.1293 25.184H17.1353C17.1489 25.178 17.1702 25.1661 17.1859 25.1606C17.3656 25.0779 17.9685 24.8119 18.5122 24.8119C19.0184 24.8119 19.4639 25.053 19.6259 25.1531L19.6872 25.1885C19.6879 25.1884 19.6886 25.1886 19.6892 25.1888C19.6898 25.1891 19.6903 25.1896 19.6907 25.1901C19.6911 25.1907 19.6914 25.1913 19.6914 25.192C19.6915 25.1926 19.6914 25.1933 19.6912 25.1939C19.9227 25.3255 20.1862 25.3926 20.4536 25.3882C21.4458 25.3882 22.4785 24.6002 22.761 23.6244C23.0434 22.6486 22.4739 21.8606 21.4817 21.8606C21.1694 21.8652 20.8617 21.9353 20.5791 22.0663H20.5731C20.5593 22.0723 20.5381 22.0837 20.5224 22.0898C20.3427 22.1719 19.7398 22.4384 19.1961 22.4384C18.6899 22.4384 18.2444 22.1974 18.0825 22.0972L18.0212 22.0618C18.0151 22.0618 18.0171 22.0559 18.0171 22.0559C17.9927 22.0397 17.9666 22.0259 17.9391 22.015C17.697 21.8141 17.5192 21.5485 17.4269 21.2504C17.9118 21.2684 18.3289 21.4995 18.4808 21.5916L18.5426 21.627C18.5433 21.627 18.5439 21.6271 18.5445 21.6274C18.5453 21.6276 18.5458 21.6281 18.5462 21.6286C18.5466 21.6292 18.5468 21.6298 18.5469 21.6305C18.547 21.6311 18.5469 21.6318 18.5467 21.6325C18.7782 21.764 19.0417 21.8312 19.309 21.8267C19.6776 21.8201 20.0386 21.723 20.3594 21.5443C20.5933 21.4387 21.0742 21.2454 21.5405 21.2454C22.0467 21.2454 22.4921 21.4865 22.6541 21.5867L22.7154 21.6219C22.7214 21.6219 22.7194 21.628 22.7194 21.628C22.951 21.7593 23.2145 21.8263 23.4817 21.8218C24.4897 21.8238 25.5264 21.0357 25.8109 20.0599Z" fill="#B6FF00"/>
<path d="M18.3144 18.1475C18.6267 18.1429 18.9344 18.0728 19.2169 17.9418H19.2231C19.2367 17.9358 19.2579 17.9239 19.2736 17.9184C19.4533 17.8357 20.0563 17.5697 20.5999 17.5697C21.1061 17.5697 21.5516 17.8108 21.7137 17.9109L21.7748 17.9463C21.7756 17.9462 21.7763 17.9463 21.7769 17.9466C21.7775 17.9469 21.7781 17.9473 21.7784 17.9479C21.7788 17.9485 21.7791 17.9491 21.7792 17.9498C21.7793 17.9504 21.7792 17.9511 21.7789 17.9518C22.0104 18.0833 22.274 18.1505 22.5413 18.146C23.5335 18.146 24.5662 17.358 24.8486 16.3822C25.1311 15.4064 24.5616 14.6184 23.5694 14.6184C23.2571 14.623 22.9494 14.6931 22.6669 14.8241H22.6608C22.6471 14.8301 22.6258 14.8415 22.6101 14.8475C22.4309 14.9297 21.8275 15.1962 21.2838 15.1962C20.7776 15.1962 20.3321 14.9551 20.1702 14.855L20.1089 14.8196C20.1029 14.8196 20.1049 14.8137 20.1049 14.8137C19.8733 14.6823 19.6098 14.6153 19.3425 14.6199C18.3503 14.6199 17.3177 15.4074 17.0357 16.3837C16.7536 17.36 17.3221 18.1475 18.3144 18.1475Z" fill="#B6FF00"/>
</g>
<defs>
<clipPath id="clip0_366_132">
<rect width="40" height="40" rx="20" fill="white"/>
</clipPath>
</defs>
</svg>
